<svg viewBox="0 0 530 290" fill="none" xmlns="http://www.w3.org/2000/svg">
<mask id="path-1-outside-1_79_88" maskUnits="userSpaceOnUse" x="0" y="0" width="530" height="290" fill="black">
<rect fill="white" width="530" height="290"/>
<path d="M5 2H528V285H5V2Z"/>
</mask>
<path d="M5 2H528V285H5V2Z" fill="white"/>
<path d="M5 2V0H0V2H5ZM528 2H530V0H528V2ZM528 285V290H530V285H528ZM5 285H0V290H5V285ZM5 4H528V0H5V4ZM526 2V285H530V2H526ZM528 280H5V290H528V280ZM10 285V2H0V285H10Z" fill="black" mask="url(#path-1-outside-1_79_88)"/>
<rect x="19.5" y="9.5" width="97" height="243" fill="white" stroke="black"/>
<rect x="58.5" y="9.5" width="58" height="243" fill="white" stroke="black"/>
<rect x="71.25" y="34.75" width="32.5" height="7.5" fill="white" stroke="black" stroke-width="0.5"/>
<rect x="74.5" y="39" width="26" height="2" fill="black" stroke="black"/>
<path d="M85.5 37.5V37.5C87.0769 35.6603 89.9231 35.6603 91.5 37.5V37.5" stroke="black"/>
<line x1="59" y1="115.5" x2="118" y2="115.5" stroke="black"/>
<line x1="59" y1="68.5" x2="118" y2="68.5" stroke="black"/>
<line x1="58" y1="162.5" x2="117" y2="162.5" stroke="black"/>
<rect x="71.25" y="128.75" width="32.5" height="7.5" fill="white" stroke="black" stroke-width="0.5"/>
<rect x="74.5" y="133" width="26" height="2" fill="black" stroke="black"/>
<path d="M85.5 131.5V131.5C87.0769 129.66 89.9231 129.66 91.5 131.5V131.5" stroke="black"/>
<line x1="58" y1="209.5" x2="117" y2="209.5" stroke="black"/>
<rect x="71.25" y="175.75" width="32.5" height="7.5" fill="white" stroke="black" stroke-width="0.5"/>
<rect x="74.5" y="180" width="26" height="2" fill="black" stroke="black"/>
<path d="M85.5 178.5V178.5C87.0769 176.66 89.9231 176.66 91.5 178.5V178.5" stroke="black"/>
<rect x="71.25" y="222.75" width="32.5" height="7.5" fill="white" stroke="black" stroke-width="0.5"/>
<rect x="74.5" y="227" width="26" height="2" fill="black" stroke="black"/>
<path d="M85.5 225.5V225.5C87.0769 223.66 89.9231 223.66 91.5 225.5V225.5" stroke="black"/>
<line x1="58.9993" y1="75.5" x2="166.999" y2="75.3512" stroke="black"/>
<line x1="117" y1="115.5" x2="167" y2="115.5" stroke="black"/>
<path d="M106.625 116V74.9955" stroke="black"/>
<path d="M166.625 116V74.9955" stroke="black"/>
<rect x="114" y="76" width="4" height="39" fill="white"/>
<rect x="59.5" y="92.5815" width="46" height="4.97896" fill="black" stroke="black"/>
<line x1="59" y1="94.9984" x2="106" y2="94.9984" stroke="white"/>
<rect x="123.25" y="90.3418" width="29.5" height="6.3331" fill="white" stroke="black" stroke-width="0.5"/>
<rect x="126.227" y="94.0087" width="23.5455" height="1.56241" fill="black" stroke="black"/>
<path d="M136.182 92.6542V92.6542C137.646 91.0493 140.172 91.0493 141.636 92.6542V92.6542" stroke="black"/>
<path d="M397.362 135.073C405.866 142.209 407.316 154.438 400.648 162.384C393.981 170.331 381.685 171.026 373.181 163.891C364.678 156.755 363.228 144.526 369.895 136.58C376.563 128.633 388.858 127.938 397.362 135.073Z" fill="white" stroke="black" stroke-width="0.5"/>
<path d="M378.768 147.221C379.938 148.203 380.046 150.051 378.952 151.356C377.857 152.66 376.018 152.874 374.848 151.892C373.678 150.911 373.57 149.062 374.664 147.758C375.759 146.454 377.598 146.24 378.768 147.221Z" fill="white" stroke="black" stroke-width="0.5"/>
<path d="M384.893 139.921C386.063 140.903 386.172 142.751 385.077 144.056C383.983 145.36 382.144 145.574 380.974 144.592C379.804 143.611 379.695 141.762 380.79 140.458C381.884 139.154 383.723 138.94 384.893 139.921Z" fill="white" stroke="black" stroke-width="0.5"/>
<path d="M377.914 146.658V146.658C378.183 145.669 378.872 144.848 379.799 144.411L380.53 144.068" stroke="black"/>
<path d="M377.193 151.098C377.384 151.257 377.441 151.606 377.203 151.889C376.966 152.171 376.613 152.176 376.423 152.016C376.232 151.856 376.175 151.508 376.413 151.225C376.65 150.942 377.003 150.938 377.193 151.098Z" fill="black"/>
<path d="M377.193 151.098C377.384 151.257 377.441 151.606 377.203 151.889C376.966 152.171 376.613 152.176 376.423 152.016C376.232 151.856 376.175 151.508 376.413 151.225C376.65 150.942 377.003 150.938 377.193 151.098Z" fill="black"/>
<path d="M377.193 151.098C377.384 151.257 377.441 151.606 377.203 151.889C376.966 152.171 376.613 152.176 376.423 152.016C376.232 151.856 376.175 151.508 376.413 151.225C376.65 150.942 377.003 150.938 377.193 151.098Z" fill="black"/>
<path d="M377.193 151.098C377.384 151.257 377.441 151.606 377.203 151.889C376.966 152.171 376.613 152.176 376.423 152.016C376.232 151.856 376.175 151.508 376.413 151.225C376.65 150.942 377.003 150.938 377.193 151.098Z" stroke="black"/>
<path d="M383.319 143.798C383.509 143.957 383.566 144.306 383.329 144.589C383.092 144.871 382.739 144.876 382.548 144.716C382.358 144.556 382.301 144.208 382.538 143.925C382.775 143.642 383.128 143.638 383.319 143.798Z" fill="black"/>
<path d="M383.319 143.798C383.509 143.957 383.566 144.306 383.329 144.589C383.092 144.871 382.739 144.876 382.548 144.716C382.358 144.556 382.301 144.208 382.538 143.925C382.775 143.642 383.128 143.638 383.319 143.798Z" fill="black"/>
<path d="M383.319 143.798C383.509 143.957 383.566 144.306 383.329 144.589C383.092 144.871 382.739 144.876 382.548 144.716C382.358 144.556 382.301 144.208 382.538 143.925C382.775 143.642 383.128 143.638 383.319 143.798Z" fill="black"/>
<path d="M383.319 143.798C383.509 143.957 383.566 144.306 383.329 144.589C383.092 144.871 382.739 144.876 382.548 144.716C382.358 144.556 382.301 144.208 382.538 143.925C382.775 143.642 383.128 143.638 383.319 143.798Z" stroke="black"/>
<path d="M372.502 149.603L373.256 147.89L372.861 149.734L372.637 149.652L372.502 149.603Z" fill="black" stroke="black"/>
<path d="M381.202 139.217L382.597 138.373L382.645 138.479L382.914 139.067L381.202 139.217Z" fill="black" stroke="black"/>
<rect x="382.902" y="149.287" width="0.183261" height="3.20384" transform="rotate(-50 382.902 149.287)" fill="black" stroke="black" stroke-width="0.183261"/>
<path d="M385.382 151.458C385.549 151.598 385.583 151.884 385.399 152.103C385.216 152.322 384.928 152.338 384.761 152.198C384.734 152.175 384.724 152.16 384.721 152.154C384.721 152.15 384.724 152.142 384.73 152.128C384.745 152.094 384.774 152.048 384.825 151.984C384.859 151.941 384.895 151.899 384.936 151.851C384.957 151.826 384.98 151.8 385.004 151.771C385.028 151.742 385.05 151.716 385.071 151.69C385.111 151.642 385.146 151.599 385.183 151.558C385.237 151.497 385.277 151.46 385.308 151.439C385.32 151.43 385.328 151.427 385.332 151.425C385.339 151.428 385.355 151.435 385.382 151.458ZM384.719 152.151C384.719 152.151 384.719 152.152 384.719 152.152L384.719 152.151ZM384.72 152.157C384.72 152.157 384.72 152.158 384.72 152.158L384.72 152.157ZM385.336 151.424C385.336 151.424 385.335 151.425 385.334 151.425L385.336 151.424ZM385.33 151.425C385.329 151.424 385.329 151.424 385.329 151.424L385.33 151.425Z" fill="white"/>
<path d="M385.382 151.458C385.549 151.598 385.583 151.884 385.399 152.103C385.216 152.322 384.928 152.338 384.761 152.198C384.734 152.175 384.724 152.16 384.721 152.154C384.721 152.15 384.724 152.142 384.73 152.128C384.745 152.094 384.774 152.048 384.825 151.984C384.859 151.941 384.895 151.899 384.936 151.851C384.957 151.826 384.98 151.8 385.004 151.771C385.028 151.742 385.05 151.716 385.071 151.69C385.111 151.642 385.146 151.599 385.183 151.558C385.237 151.497 385.277 151.46 385.308 151.439C385.32 151.43 385.328 151.427 385.332 151.425C385.339 151.428 385.355 151.435 385.382 151.458ZM384.719 152.151C384.719 152.151 384.719 152.152 384.719 152.152L384.719 152.151ZM384.72 152.157C384.72 152.157 384.72 152.158 384.72 152.158L384.72 152.157ZM385.336 151.424C385.336 151.424 385.335 151.425 385.334 151.425L385.336 151.424ZM385.33 151.425C385.329 151.424 385.329 151.424 385.329 151.424L385.33 151.425Z" fill="white"/>
<path d="M385.382 151.458C385.549 151.598 385.583 151.884 385.399 152.103C385.216 152.322 384.928 152.338 384.761 152.198C384.734 152.175 384.724 152.16 384.721 152.154C384.721 152.15 384.724 152.142 384.73 152.128C384.745 152.094 384.774 152.048 384.825 151.984C384.859 151.941 384.895 151.899 384.936 151.851C384.957 151.826 384.98 151.8 385.004 151.771C385.028 151.742 385.05 151.716 385.071 151.69C385.111 151.642 385.146 151.599 385.183 151.558C385.237 151.497 385.277 151.46 385.308 151.439C385.32 151.43 385.328 151.427 385.332 151.425C385.339 151.428 385.355 151.435 385.382 151.458ZM384.719 152.151C384.719 152.151 384.719 152.152 384.719 152.152L384.719 152.151ZM384.72 152.157C384.72 152.157 384.72 152.158 384.72 152.158L384.72 152.157ZM385.336 151.424C385.336 151.424 385.335 151.425 385.334 151.425L385.336 151.424ZM385.33 151.425C385.329 151.424 385.329 151.424 385.329 151.424L385.33 151.425Z" fill="white"/>
<path d="M385.382 151.458C385.549 151.598 385.583 151.884 385.399 152.103C385.216 152.322 384.928 152.338 384.761 152.198C384.734 152.175 384.724 152.16 384.721 152.154C384.721 152.15 384.724 152.142 384.73 152.128C384.745 152.094 384.774 152.048 384.825 151.984C384.859 151.941 384.895 151.899 384.936 151.851C384.957 151.826 384.98 151.8 385.004 151.771C385.028 151.742 385.05 151.716 385.071 151.69C385.111 151.642 385.146 151.599 385.183 151.558C385.237 151.497 385.277 151.46 385.308 151.439C385.32 151.43 385.328 151.427 385.332 151.425C385.339 151.428 385.355 151.435 385.382 151.458ZM384.719 152.151C384.719 152.151 384.719 152.152 384.719 152.152L384.719 152.151ZM384.72 152.157C384.72 152.157 384.72 152.158 384.72 152.158L384.72 152.157ZM385.336 151.424C385.336 151.424 385.335 151.425 385.334 151.425L385.336 151.424ZM385.33 151.425C385.329 151.424 385.329 151.424 385.329 151.424L385.33 151.425Z" fill="white"/>
<path d="M385.382 151.458C385.549 151.598 385.583 151.884 385.399 152.103C385.216 152.322 384.928 152.338 384.761 152.198C384.734 152.175 384.724 152.16 384.721 152.154C384.721 152.15 384.724 152.142 384.73 152.128C384.745 152.094 384.774 152.048 384.825 151.984C384.859 151.941 384.895 151.899 384.936 151.851C384.957 151.826 384.98 151.8 385.004 151.771C385.028 151.742 385.05 151.716 385.071 151.69C385.111 151.642 385.146 151.599 385.183 151.558C385.237 151.497 385.277 151.46 385.308 151.439C385.32 151.43 385.328 151.427 385.332 151.425C385.339 151.428 385.355 151.435 385.382 151.458ZM384.719 152.151C384.719 152.151 384.719 152.152 384.719 152.152L384.719 152.151ZM384.72 152.157C384.72 152.157 384.72 152.158 384.72 152.158L384.72 152.157ZM385.336 151.424C385.336 151.424 385.335 151.425 385.334 151.425L385.336 151.424ZM385.33 151.425C385.329 151.424 385.329 151.424 385.329 151.424L385.33 151.425Z" stroke="black" stroke-width="0.5"/>
<path d="M386.149 150.544C386.316 150.684 386.35 150.97 386.166 151.189C385.982 151.408 385.695 151.424 385.528 151.284C385.501 151.262 385.491 151.247 385.487 151.241C385.488 151.237 385.49 151.228 385.496 151.214C385.511 151.18 385.541 151.135 385.592 151.07C385.626 151.028 385.662 150.985 385.703 150.937C385.724 150.912 385.746 150.886 385.77 150.857C385.795 150.829 385.817 150.802 385.837 150.777C385.877 150.728 385.913 150.685 385.949 150.644C386.004 150.583 386.044 150.546 386.074 150.525C386.087 150.517 386.095 150.513 386.099 150.512C386.105 150.514 386.122 150.521 386.149 150.544ZM385.486 151.238C385.486 151.238 385.486 151.238 385.486 151.239L385.486 151.238ZM385.487 151.243C385.487 151.244 385.487 151.244 385.487 151.244L385.487 151.243ZM386.102 150.511C386.102 150.511 386.102 150.511 386.101 150.511L386.102 150.511ZM386.097 150.511C386.096 150.511 386.096 150.511 386.096 150.511L386.097 150.511Z" fill="white"/>
<path d="M386.149 150.544C386.316 150.684 386.35 150.97 386.166 151.189C385.982 151.408 385.695 151.424 385.528 151.284C385.501 151.262 385.491 151.247 385.487 151.241C385.488 151.237 385.49 151.228 385.496 151.214C385.511 151.18 385.541 151.135 385.592 151.07C385.626 151.028 385.662 150.985 385.703 150.937C385.724 150.912 385.746 150.886 385.77 150.857C385.795 150.829 385.817 150.802 385.837 150.777C385.877 150.728 385.913 150.685 385.949 150.644C386.004 150.583 386.044 150.546 386.074 150.525C386.087 150.517 386.095 150.513 386.099 150.512C386.105 150.514 386.122 150.521 386.149 150.544ZM385.486 151.238C385.486 151.238 385.486 151.238 385.486 151.239L385.486 151.238ZM385.487 151.243C385.487 151.244 385.487 151.244 385.487 151.244L385.487 151.243ZM386.102 150.511C386.102 150.511 386.102 150.511 386.101 150.511L386.102 150.511ZM386.097 150.511C386.096 150.511 386.096 150.511 386.096 150.511L386.097 150.511Z" fill="white"/>
<path d="M386.149 150.544C386.316 150.684 386.35 150.97 386.166 151.189C385.982 151.408 385.695 151.424 385.528 151.284C385.501 151.262 385.491 151.247 385.487 151.241C385.488 151.237 385.49 151.228 385.496 151.214C385.511 151.18 385.541 151.135 385.592 151.07C385.626 151.028 385.662 150.985 385.703 150.937C385.724 150.912 385.746 150.886 385.77 150.857C385.795 150.829 385.817 150.802 385.837 150.777C385.877 150.728 385.913 150.685 385.949 150.644C386.004 150.583 386.044 150.546 386.074 150.525C386.087 150.517 386.095 150.513 386.099 150.512C386.105 150.514 386.122 150.521 386.149 150.544ZM385.486 151.238C385.486 151.238 385.486 151.238 385.486 151.239L385.486 151.238ZM385.487 151.243C385.487 151.244 385.487 151.244 385.487 151.244L385.487 151.243ZM386.102 150.511C386.102 150.511 386.102 150.511 386.101 150.511L386.102 150.511ZM386.097 150.511C386.096 150.511 386.096 150.511 386.096 150.511L386.097 150.511Z" fill="white"/>
<path d="M386.149 150.544C386.316 150.684 386.35 150.97 386.166 151.189C385.982 151.408 385.695 151.424 385.528 151.284C385.501 151.262 385.491 151.247 385.487 151.241C385.488 151.237 385.49 151.228 385.496 151.214C385.511 151.18 385.541 151.135 385.592 151.07C385.626 151.028 385.662 150.985 385.703 150.937C385.724 150.912 385.746 150.886 385.77 150.857C385.795 150.829 385.817 150.802 385.837 150.777C385.877 150.728 385.913 150.685 385.949 150.644C386.004 150.583 386.044 150.546 386.074 150.525C386.087 150.517 386.095 150.513 386.099 150.512C386.105 150.514 386.122 150.521 386.149 150.544ZM385.486 151.238C385.486 151.238 385.486 151.238 385.486 151.239L385.486 151.238ZM385.487 151.243C385.487 151.244 385.487 151.244 385.487 151.244L385.487 151.243ZM386.102 150.511C386.102 150.511 386.102 150.511 386.101 150.511L386.102 150.511ZM386.097 150.511C386.096 150.511 386.096 150.511 386.096 150.511L386.097 150.511Z" fill="white"/>
<path d="M386.149 150.544C386.316 150.684 386.35 150.97 386.166 151.189C385.982 151.408 385.695 151.424 385.528 151.284C385.501 151.262 385.491 151.247 385.487 151.241C385.488 151.237 385.49 151.228 385.496 151.214C385.511 151.18 385.541 151.135 385.592 151.07C385.626 151.028 385.662 150.985 385.703 150.937C385.724 150.912 385.746 150.886 385.77 150.857C385.795 150.829 385.817 150.802 385.837 150.777C385.877 150.728 385.913 150.685 385.949 150.644C386.004 150.583 386.044 150.546 386.074 150.525C386.087 150.517 386.095 150.513 386.099 150.512C386.105 150.514 386.122 150.521 386.149 150.544ZM385.486 151.238C385.486 151.238 385.486 151.238 385.486 151.239L385.486 151.238ZM385.487 151.243C385.487 151.244 385.487 151.244 385.487 151.244L385.487 151.243ZM386.102 150.511C386.102 150.511 386.102 150.511 386.101 150.511L386.102 150.511ZM386.097 150.511C386.096 150.511 386.096 150.511 386.096 150.511L386.097 150.511Z" stroke="black" stroke-width="0.5"/>
<path d="M401.768 138.786C403.984 139.912 406.863 142.772 410.747 148.249C409.742 149.564 409.691 151.25 410.045 153.092C410.335 154.605 410.91 156.273 411.502 157.992C411.658 158.444 411.814 158.899 411.968 159.356C413.456 163.795 414.606 168.408 411.519 172.088C409.974 173.928 407.93 174.804 405.665 175.144C403.394 175.484 400.915 175.282 398.524 174.975C397.844 174.888 397.169 174.792 396.508 174.698C394.861 174.464 393.301 174.242 391.964 174.2C390.216 174.145 388.723 174.389 387.906 175.433C382.252 171.724 379.13 168.969 377.704 166.82C376.986 165.737 376.711 164.827 376.741 164.039C376.771 163.253 377.105 162.552 377.676 161.887C378.25 161.219 379.054 160.599 380.002 159.981C380.791 159.466 381.667 158.961 382.581 158.435C382.765 158.329 382.95 158.223 383.136 158.115C385.348 156.835 387.702 155.406 389.328 153.468C390.95 151.535 392.145 148.84 393.264 146.274C393.294 146.207 393.323 146.14 393.352 146.072C394.449 143.559 395.476 141.204 396.766 139.729C397.424 138.978 398.133 138.475 398.934 138.288C399.732 138.103 400.658 138.223 401.768 138.786Z" fill="white" stroke="black" stroke-width="0.5"/>
<line x1="398.513" y1="148.456" x2="403.702" y2="152.811" stroke="black"/>
<line x1="400.26" y1="153.751" x2="405.45" y2="158.105" stroke="black"/>
<line x1="389.894" y1="166.105" x2="395.083" y2="170.459" stroke="black"/>
<line x1="395.411" y1="166.907" x2="400.601" y2="171.261" stroke="black"/>
<line x1="402.008" y1="159.045" x2="407.197" y2="163.399" stroke="black"/>
<line x1="384.377" y1="165.303" x2="389.566" y2="169.657" stroke="black"/>
<path d="M394.471 152.742C394.471 152.742 394.471 152.743 394.472 152.743L394.471 152.742ZM394.426 152.739C394.454 152.739 394.468 152.742 394.472 152.744C394.475 152.749 394.481 152.761 394.486 152.79C394.493 152.838 394.491 152.914 394.469 153.022C394.426 153.239 394.314 153.533 394.133 153.888C393.773 154.594 393.165 155.494 392.393 156.414C391.621 157.335 390.84 158.089 390.207 158.567C389.889 158.806 389.619 158.967 389.413 159.048C389.31 159.088 389.236 159.103 389.187 159.104C389.158 159.105 389.145 159.101 389.14 159.099C389.137 159.095 389.131 159.082 389.127 159.054C389.12 159.006 389.122 158.93 389.143 158.821C389.187 158.605 389.299 158.311 389.479 157.956C389.839 157.249 390.447 156.35 391.219 155.429C391.992 154.509 392.772 153.754 393.405 153.277C393.724 153.038 393.994 152.876 394.199 152.796C394.302 152.756 394.377 152.741 394.426 152.739ZM389.138 159.098C389.138 159.098 389.138 159.098 389.139 159.099L389.138 159.098ZM389.141 159.101C389.141 159.101 389.141 159.101 389.141 159.101L389.141 159.101ZM394.474 152.745C394.474 152.745 394.475 152.746 394.475 152.746L394.474 152.745Z" fill="white" stroke="black" stroke-width="0.5"/>
<path d="M369.456 159.373C369.949 159.787 370.339 160.22 370.572 160.581C370.69 160.763 370.762 160.919 370.792 161.041C370.823 161.167 370.802 161.224 370.782 161.247C370.769 161.263 370.739 161.287 370.682 161.314C370.626 161.34 370.553 161.364 370.465 161.384C370.288 161.423 370.06 161.441 369.806 161.425C369.297 161.393 368.706 161.223 368.235 160.828C368.133 160.742 368.026 160.59 367.919 160.374C367.813 160.16 367.712 159.895 367.619 159.594C367.433 158.992 367.278 158.261 367.163 157.542C367.047 156.824 366.971 156.124 366.94 155.585C366.925 155.315 366.921 155.089 366.928 154.922C366.929 154.895 366.931 154.87 366.933 154.847C366.98 154.921 367.035 155.018 367.098 155.139C367.247 155.421 367.427 155.803 367.627 156.228C367.677 156.335 367.728 156.444 367.781 156.555C368.041 157.106 368.327 157.696 368.611 158.203C368.891 158.704 369.182 159.143 369.456 159.373Z" fill="white" stroke="black" stroke-width="0.3"/>
<path d="M392.533 131.871C393.026 132.284 393.52 132.593 393.917 132.76C394.116 132.844 394.283 132.889 394.408 132.897C394.537 132.906 394.59 132.875 394.609 132.852C394.622 132.836 394.641 132.802 394.657 132.741C394.673 132.682 394.685 132.606 394.689 132.515C394.696 132.334 394.675 132.106 394.615 131.859C394.495 131.364 394.225 130.811 393.754 130.416C393.652 130.33 393.484 130.251 393.252 130.183C393.023 130.115 392.744 130.063 392.432 130.023C391.807 129.944 391.06 129.919 390.332 129.93C389.605 129.941 388.902 129.988 388.366 130.051C388.098 130.083 387.874 130.118 387.711 130.154C387.685 130.16 387.66 130.166 387.638 130.171C387.719 130.205 387.824 130.243 387.954 130.284C388.258 130.382 388.665 130.492 389.118 130.615C389.232 130.646 389.349 130.678 389.467 130.71C390.055 130.871 390.686 131.05 391.234 131.241C391.776 131.431 392.259 131.64 392.533 131.871Z" fill="white" stroke="black" stroke-width="0.3"/>
<path d="M367.314 136.498L364.175 137.757L366.211 129.79L366.601 134.047L366.603 134.071L366.61 134.094L367.314 136.498ZM368.435 138.541L367.922 136.793L370.431 135.787L368.435 138.541Z" fill="white" stroke="black" stroke-width="0.5"/>
<rect x="-0.5" y="0.5" width="97" height="161" transform="matrix(-1 0 0 1 500 89)" fill="white" stroke="black"/>
<rect x="-0.5" y="0.5" width="58" height="161" transform="matrix(-1 0 0 1 461 89)" fill="white" stroke="black"/>
<rect x="414.25" y="109.75" width="32.5" height="7.5" fill="white" stroke="black" stroke-width="0.5"/>
<rect x="417.5" y="114" width="26" height="2" fill="black" stroke="black"/>
<path d="M428.5 112.5V112.5C430.077 110.66 432.923 110.66 434.5 112.5V112.5" stroke="black"/>
<rect x="414.25" y="144.75" width="32.5" height="7.5" fill="white" stroke="black" stroke-width="0.5"/>
<rect x="417.5" y="149" width="26" height="2" fill="black" stroke="black"/>
<path d="M428.5 147.5V147.5C430.077 145.66 432.923 145.66 434.5 147.5V147.5" stroke="black"/>
<rect x="414.25" y="179.75" width="32.5" height="7.5" fill="white" stroke="black" stroke-width="0.5"/>
<rect x="417.5" y="184" width="26" height="2" fill="black" stroke="black"/>
<path d="M428.5 182.5V182.5C430.077 180.66 432.923 180.66 434.5 182.5V182.5" stroke="black"/>
<line x1="460.999" y1="209.5" x2="353.999" y2="209.391" stroke="black"/>
<line y1="-0.5" x2="50" y2="-0.5" transform="matrix(-1 0 0 1 404 251.002)" stroke="black"/>
<path d="M414.375 251.002L414 209.786" stroke="black"/>
<path d="M354.375 251.002V207.994" stroke="black"/>
<rect width="4" height="40" transform="matrix(-1 0 0 1 406 210)" fill="white"/>
<rect x="-0.5" y="0.5" width="46" height="5.27086" transform="matrix(-1 0 0 1 461 225.915)" fill="black" stroke="black"/>
<line y1="-0.5" x2="47" y2="-0.5" transform="matrix(-1 0 0 1 462 229.498)" stroke="white"/>
<rect x="-0.25" y="0.25" width="27.5" height="9.8026" transform="matrix(-1 0 0 1 395.5 222.644)" fill="white" stroke="black" stroke-width="0.5"/>
<rect x="-0.5" y="0.5" width="21.9091" height="2.86293" transform="matrix(-1 0 0 1 392.455 227.795)" fill="black" stroke="black"/>
<path d="M383.697 226.507V226.507C382.578 224.526 379.725 224.526 378.606 226.507V226.507" stroke="black"/>
<line x1="403" y1="130.5" x2="462" y2="130.5" stroke="black"/>
<line x1="403" y1="167.5" x2="462" y2="167.5" stroke="black"/>
<line x1="403" y1="204.5" x2="462" y2="204.5" stroke="black"/>
<rect x="259.038" y="192.51" width="1" height="33.7016" rx="0.5" transform="rotate(-10 259.038 192.51)" fill="black" stroke="black"/>
<rect x="259.612" y="188.871" width="1" height="40.8425" rx="0.5" transform="rotate(-15 259.612 188.871)" fill="black" stroke="black"/>
<rect x="258.748" y="195.697" width="1" height="29.0933" rx="0.5" transform="rotate(10 258.748 195.697)" fill="black" stroke="black"/>
<rect x="259.183" y="188.612" width="1" height="40.8425" rx="0.5" transform="rotate(15 259.183 188.612)" fill="black" stroke="black"/>
<path d="M284.75 186.5C284.75 186.615 284.666 186.786 284.359 187C284.061 187.208 283.605 187.419 282.995 187.626C281.776 188.037 280 188.411 277.789 188.727C273.37 189.359 267.257 189.75 260.5 189.75C253.743 189.75 247.63 189.359 243.211 188.727C241 188.411 239.224 188.037 238.005 187.626C237.395 187.419 236.939 187.208 236.641 187C236.334 186.786 236.25 186.615 236.25 186.5C236.25 186.385 236.334 186.214 236.641 186C236.939 185.792 237.395 185.581 238.005 185.374C239.224 184.963 241 184.589 243.211 184.273C247.63 183.641 253.743 183.25 260.5 183.25C267.257 183.25 273.37 183.641 277.789 184.273C280 184.589 281.776 184.963 282.995 185.374C283.605 185.581 284.061 185.792 284.359 186C284.666 186.214 284.75 186.385 284.75 186.5Z" fill="black" stroke="black" stroke-width="0.5"/>
<rect x="204.5" y="108.5" width="110" height="54" fill="#9DADFF" stroke="black"/>
<mask id="path-83-outside-2_79_88" maskUnits="userSpaceOnUse" x="230" y="120" width="59" height="28" fill="black">
<rect fill="white" x="230" y="120" width="59" height="28"/>
<path d="M247.496 140.132H244.796V146H241.844V140.132H231.332V137.72C233.18 134.912 234.848 132.176 236.336 129.512C237.848 126.848 239.096 124.184 240.08 121.52H243.392C242.384 124.136 241.16 126.74 239.72 129.332C238.304 131.924 236.672 134.6 234.824 137.36H241.844V132.896H244.796V137.36H247.496V140.132ZM267.793 131.06V136.424C267.793 139.688 267.061 142.16 265.597 143.84C264.133 145.52 262.093 146.36 259.477 146.36C256.861 146.36 254.821 145.52 253.357 143.84C251.917 142.16 251.197 139.688 251.197 136.424V131.06C251.197 127.82 251.929 125.36 253.393 123.68C254.857 122 256.885 121.16 259.477 121.16C262.093 121.16 264.133 122 265.597 123.68C267.061 125.36 267.793 127.82 267.793 131.06ZM264.625 131.06C264.625 128.564 264.169 126.764 263.257 125.66C262.369 124.556 261.109 124.004 259.477 124.004C257.869 124.004 256.609 124.556 255.697 125.66C254.809 126.764 254.365 128.564 254.365 131.06V136.424C254.365 138.896 254.809 140.708 255.697 141.86C256.609 142.988 257.869 143.552 259.477 143.552C261.109 143.552 262.369 142.988 263.257 141.86C264.169 140.708 264.625 138.896 264.625 136.424V131.06ZM287.855 140.132H285.155V146H282.203V140.132H271.691V137.72C273.539 134.912 275.207 132.176 276.695 129.512C278.207 126.848 279.455 124.184 280.439 121.52H283.751C282.743 124.136 281.519 126.74 280.079 129.332C278.663 131.924 277.031 134.6 275.183 137.36H282.203V132.896H285.155V137.36H287.855V140.132Z"/>
</mask>
<path d="M247.496 140.132H244.796V146H241.844V140.132H231.332V137.72C233.18 134.912 234.848 132.176 236.336 129.512C237.848 126.848 239.096 124.184 240.08 121.52H243.392C242.384 124.136 241.16 126.74 239.72 129.332C238.304 131.924 236.672 134.6 234.824 137.36H241.844V132.896H244.796V137.36H247.496V140.132ZM267.793 131.06V136.424C267.793 139.688 267.061 142.16 265.597 143.84C264.133 145.52 262.093 146.36 259.477 146.36C256.861 146.36 254.821 145.52 253.357 143.84C251.917 142.16 251.197 139.688 251.197 136.424V131.06C251.197 127.82 251.929 125.36 253.393 123.68C254.857 122 256.885 121.16 259.477 121.16C262.093 121.16 264.133 122 265.597 123.68C267.061 125.36 267.793 127.82 267.793 131.06ZM264.625 131.06C264.625 128.564 264.169 126.764 263.257 125.66C262.369 124.556 261.109 124.004 259.477 124.004C257.869 124.004 256.609 124.556 255.697 125.66C254.809 126.764 254.365 128.564 254.365 131.06V136.424C254.365 138.896 254.809 140.708 255.697 141.86C256.609 142.988 257.869 143.552 259.477 143.552C261.109 143.552 262.369 142.988 263.257 141.86C264.169 140.708 264.625 138.896 264.625 136.424V131.06ZM287.855 140.132H285.155V146H282.203V140.132H271.691V137.72C273.539 134.912 275.207 132.176 276.695 129.512C278.207 126.848 279.455 124.184 280.439 121.52H283.751C282.743 124.136 281.519 126.74 280.079 129.332C278.663 131.924 277.031 134.6 275.183 137.36H282.203V132.896H285.155V137.36H287.855V140.132Z" fill="black"/>
<path d="M247.496 140.132V141.132H248.496V140.132H247.496ZM244.796 140.132V139.132H243.796V140.132H244.796ZM244.796 146V147H245.796V146H244.796ZM241.844 146H240.844V147H241.844V146ZM241.844 140.132H242.844V139.132H241.844V140.132ZM231.332 140.132H230.332V141.132H231.332V140.132ZM231.332 137.72L230.496 137.17L230.332 137.42V137.72H231.332ZM236.336 129.512L235.466 129.018L235.463 129.024L236.336 129.512ZM240.08 121.52V120.52H239.383L239.142 121.174L240.08 121.52ZM243.392 121.52L244.325 121.88L244.849 120.52H243.392V121.52ZM239.72 129.332L238.846 128.846L238.842 128.853L239.72 129.332ZM234.824 137.36L233.993 136.804L232.951 138.36H234.824V137.36ZM241.844 137.36V138.36H242.844V137.36H241.844ZM241.844 132.896V131.896H240.844V132.896H241.844ZM244.796 132.896H245.796V131.896H244.796V132.896ZM244.796 137.36H243.796V138.36H244.796V137.36ZM247.496 137.36H248.496V136.36H247.496V137.36ZM247.496 139.132H244.796V141.132H247.496V139.132ZM243.796 140.132V146H245.796V140.132H243.796ZM244.796 145H241.844V147H244.796V145ZM242.844 146V140.132H240.844V146H242.844ZM241.844 139.132H231.332V141.132H241.844V139.132ZM232.332 140.132V137.72H230.332V140.132H232.332ZM232.167 138.27C234.027 135.444 235.708 132.687 237.209 130L235.463 129.024C233.988 131.665 232.332 134.38 230.496 137.17L232.167 138.27ZM237.205 130.006C238.742 127.298 240.014 124.585 241.018 121.866L239.142 121.174C238.178 123.783 236.953 126.398 235.466 129.018L237.205 130.006ZM240.08 122.52H243.392V120.52H240.08V122.52ZM242.459 121.16C241.468 123.731 240.264 126.293 238.846 128.846L240.594 129.818C242.055 127.187 243.299 124.541 244.325 121.88L242.459 121.16ZM238.842 128.853C237.442 131.415 235.826 134.066 233.993 136.804L235.655 137.916C237.517 135.134 239.165 132.433 240.597 129.811L238.842 128.853ZM234.824 138.36H241.844V136.36H234.824V138.36ZM242.844 137.36V132.896H240.844V137.36H242.844ZM241.844 133.896H244.796V131.896H241.844V133.896ZM243.796 132.896V137.36H245.796V132.896H243.796ZM244.796 138.36H247.496V136.36H244.796V138.36ZM246.496 137.36V140.132H248.496V137.36H246.496ZM265.597 143.84L266.351 144.497L266.351 144.497L265.597 143.84ZM253.357 143.84L252.598 144.491L252.603 144.497L253.357 143.84ZM253.393 123.68L254.147 124.337L254.147 124.337L253.393 123.68ZM265.597 123.68L264.843 124.337L264.843 124.337L265.597 123.68ZM263.257 125.66L262.478 126.287L262.486 126.297L263.257 125.66ZM255.697 125.66L254.926 125.023L254.918 125.033L255.697 125.66ZM255.697 141.86L254.905 142.471L254.912 142.48L254.919 142.489L255.697 141.86ZM263.257 141.86L262.473 141.239L262.471 141.241L263.257 141.86ZM266.793 131.06V136.424H268.793V131.06H266.793ZM266.793 136.424C266.793 139.556 266.089 141.754 264.843 143.183L266.351 144.497C268.033 142.566 268.793 139.82 268.793 136.424H266.793ZM264.843 143.183C263.603 144.607 261.859 145.36 259.477 145.36V147.36C262.327 147.36 264.663 146.433 266.351 144.497L264.843 143.183ZM259.477 145.36C257.095 145.36 255.351 144.607 254.111 143.183L252.603 144.497C254.291 146.433 256.627 147.36 259.477 147.36V145.36ZM254.116 143.189C252.891 141.76 252.197 139.56 252.197 136.424H250.197C250.197 139.816 250.943 142.56 252.598 144.491L254.116 143.189ZM252.197 136.424V131.06H250.197V136.424H252.197ZM252.197 131.06C252.197 127.954 252.9 125.768 254.147 124.337L252.639 123.023C250.958 124.952 250.197 127.686 250.197 131.06H252.197ZM254.147 124.337C255.389 122.911 257.122 122.16 259.477 122.16V120.16C256.648 120.16 254.325 121.089 252.639 123.023L254.147 124.337ZM259.477 122.16C261.859 122.16 263.603 122.913 264.843 124.337L266.351 123.023C264.663 121.087 262.327 120.16 259.477 120.16V122.16ZM264.843 124.337C266.09 125.768 266.793 127.954 266.793 131.06H268.793C268.793 127.686 268.032 124.952 266.351 123.023L264.843 124.337ZM265.625 131.06C265.625 128.487 265.164 126.398 264.028 125.023L262.486 126.297C263.174 127.13 263.625 128.641 263.625 131.06H265.625ZM264.036 125.033C262.928 123.656 261.36 123.004 259.477 123.004V125.004C260.858 125.004 261.81 125.456 262.478 126.287L264.036 125.033ZM259.477 123.004C257.612 123.004 256.053 123.659 254.926 125.023L256.468 126.297C257.165 125.453 258.126 125.004 259.477 125.004V123.004ZM254.918 125.033C253.813 126.407 253.365 128.492 253.365 131.06H255.365C255.365 128.636 255.805 127.121 256.476 126.287L254.918 125.033ZM253.365 131.06V136.424H255.365V131.06H253.365ZM253.365 136.424C253.365 138.977 253.816 141.058 254.905 142.471L256.489 141.249C255.802 140.358 255.365 138.815 255.365 136.424H253.365ZM254.919 142.489C256.043 143.879 257.604 144.552 259.477 144.552V142.552C258.134 142.552 257.174 142.097 256.475 141.231L254.919 142.489ZM259.477 144.552C261.368 144.552 262.937 143.882 264.043 142.479L262.471 141.241C261.8 142.094 260.85 142.552 259.477 142.552V144.552ZM264.041 142.481C265.16 141.067 265.625 138.981 265.625 136.424H263.625C263.625 138.811 263.178 140.349 262.473 141.239L264.041 142.481ZM265.625 136.424V131.06H263.625V136.424H265.625ZM287.855 140.132V141.132H288.855V140.132H287.855ZM285.155 140.132V139.132H284.155V140.132H285.155ZM285.155 146V147H286.155V146H285.155ZM282.203 146H281.203V147H282.203V146ZM282.203 140.132H283.203V139.132H282.203V140.132ZM271.691 140.132H270.691V141.132H271.691V140.132ZM271.691 137.72L270.856 137.17L270.691 137.42V137.72H271.691ZM276.695 129.512L275.825 129.018L275.822 129.024L276.695 129.512ZM280.439 121.52V120.52H279.742L279.501 121.174L280.439 121.52ZM283.751 121.52L284.684 121.88L285.208 120.52H283.751V121.52ZM280.079 129.332L279.205 128.846L279.201 128.853L280.079 129.332ZM275.183 137.36L274.352 136.804L273.31 138.36H275.183V137.36ZM282.203 137.36V138.36H283.203V137.36H282.203ZM282.203 132.896V131.896H281.203V132.896H282.203ZM285.155 132.896H286.155V131.896H285.155V132.896ZM285.155 137.36H284.155V138.36H285.155V137.36ZM287.855 137.36H288.855V136.36H287.855V137.36ZM287.855 139.132H285.155V141.132H287.855V139.132ZM284.155 140.132V146H286.155V140.132H284.155ZM285.155 145H282.203V147H285.155V145ZM283.203 146V140.132H281.203V146H283.203ZM282.203 139.132H271.691V141.132H282.203V139.132ZM272.691 140.132V137.72H270.691V140.132H272.691ZM272.526 138.27C274.386 135.444 276.067 132.687 277.568 130L275.822 129.024C274.347 131.665 272.692 134.38 270.856 137.17L272.526 138.27ZM277.565 130.006C279.101 127.298 280.373 124.585 281.377 121.866L279.501 121.174C278.537 123.783 277.313 126.398 275.825 129.018L277.565 130.006ZM280.439 122.52H283.751V120.52H280.439V122.52ZM282.818 121.16C281.828 123.731 280.624 126.293 279.205 128.846L280.953 129.818C282.414 127.187 283.659 124.541 284.684 121.88L282.818 121.16ZM279.201 128.853C277.802 131.415 276.185 134.066 274.352 136.804L276.014 137.916C277.877 135.134 279.525 132.433 280.957 129.811L279.201 128.853ZM275.183 138.36H282.203V136.36H275.183V138.36ZM283.203 137.36V132.896H281.203V137.36H283.203ZM282.203 133.896H285.155V131.896H282.203V133.896ZM284.155 132.896V137.36H286.155V132.896H284.155ZM285.155 138.36H287.855V136.36H285.155V138.36ZM286.855 137.36V140.132H288.855V137.36H286.855Z" fill="black" mask="url(#path-83-outside-2_79_88)"/>
<path d="M428.353 89.619L433.354 80.3783L482.579 80.8349L487.619 89.0658L428.353 89.619Z" fill="white" stroke="black"/>
<path d="M434.186 80.6799L436.096 78.0783L453.092 77.8085L454.395 80.4912L434.186 80.6799Z" fill="white" stroke="black"/>
<path d="M427.933 84.9873L433.73 76.2233L482.722 81.016L487.018 89.6591L427.933 84.9873Z" fill="white" stroke="black"/>
<path d="M434.531 76.5969L436.664 74.1738L453.617 75.4027L454.679 78.1899L434.531 76.5969Z" fill="white" stroke="black"/>
<path d="M419.263 87.5481L423.152 77.7867L472.093 72.4936L478.06 80.0798L419.263 87.5481Z" fill="white" stroke="black"/>
<path d="M424.013 77.989L425.607 75.1822L442.454 72.9301L444.062 75.4424L424.013 77.989Z" fill="white" stroke="black"/>
<path d="M444.784 73.8714L451.977 66.2116L499.457 79.2052L502.232 88.4494L444.784 73.8714Z" fill="white" stroke="black"/>
<path d="M452.704 66.7151L455.214 64.6867L471.717 68.7596L472.293 71.6861L452.704 66.7151Z" fill="white" stroke="black"/>
<path d="M457.26 71.9578L465.389 65.2998L510.773 84.3656L512.32 93.8924L457.26 71.9578Z" fill="white" stroke="black"/>
<path d="M466.044 65.8938L468.797 64.2096L484.629 70.3967L484.819 73.3734L466.044 65.8938Z" fill="white" stroke="black"/>
<path d="M468.806 66.5637L478.026 61.524L519.102 88.654L518.861 98.3027L468.806 66.5637Z" fill="white" stroke="black"/>
<path d="M478.561 62.229L481.578 61.083L495.992 70.0912L495.629 73.0518L478.561 62.229Z" fill="white" stroke="black"/>
<rect x="21.3511" y="226.334" width="58" height="33" fill="white" stroke="black"/>
<rect x="22.3511" y="222.334" width="20" height="4" fill="white" stroke="black"/>
<rect x="13.5405" y="234.027" width="58" height="33" transform="rotate(-0.516255 13.5405 234.027)" fill="white" stroke="black"/>
<rect x="14.5045" y="230.018" width="20" height="4" transform="rotate(-0.516255 14.5045 230.018)" fill="white" stroke="black"/>
<path d="M261.891 264.108L267.802 255.421L316.727 260.857L320.909 269.556L261.891 264.108Z" fill="white" stroke="black"/>
<path d="M268.599 255.805L270.762 253.41L287.698 254.862L288.723 257.663L268.599 255.805Z" fill="white" stroke="black"/>
<path d="M267.762 259.296L274.185 250.98L322.695 259.346L326.346 268.281L267.762 259.296Z" fill="white" stroke="black"/>
<path d="M274.957 251.411L277.261 249.151L294.078 251.618L294.934 254.475L274.957 251.411Z" fill="white" stroke="black"/>
<path d="M274.891 257.108L280.802 248.421L329.727 253.857L333.909 262.556L274.891 257.108Z" fill="white" stroke="black"/>
<path d="M281.599 248.805L283.762 246.41L300.698 247.862L301.723 250.663L281.599 248.805Z" fill="white" stroke="black"/>
<path d="M275.563 250.085L280.265 240.688L329.478 239.559L334.781 247.623L275.563 250.085Z" fill="white" stroke="black"/>
<path d="M281.106 240.962L282.931 238.3L299.909 237.483L301.299 240.123L281.106 240.962Z" fill="white" stroke="black"/>
<path d="M281.784 248.387L288.977 240.727L336.457 253.721L339.232 262.965L281.784 248.387Z" fill="white" stroke="black"/>
<path d="M289.704 241.231L292.214 239.202L308.717 243.275L309.293 246.202L289.704 241.231Z" fill="white" stroke="black"/>
<path d="M296.891 248.108L302.802 239.421L351.727 244.857L355.909 253.556L296.891 248.108Z" fill="white" stroke="black"/>
<path d="M303.599 239.805L305.762 237.41L322.698 238.862L323.723 241.663L303.599 239.805Z" fill="white" stroke="black"/>
</svg>
