<svg viewBox="0 0 362 273" fill="none" xmlns="http://www.w3.org/2000/svg">
<rect x="21" y="77.3397" width="320" height="194" fill="#B33CBD" stroke="black" stroke-width="2"/>
<rect x="1.22474" y="84.0468" width="320" height="194" transform="rotate(-15 1.22474 84.0468)" fill="#B33CBD" stroke="black" stroke-width="2"/>
<rect x="21" y="77.3397" width="320" height="194" fill="#B33CBD" stroke="black" stroke-width="2"/>
<rect x="21" y="77.3397" width="320" height="194" fill="#B33CBD" stroke="black" stroke-width="2"/>
<rect x="4.18606" y="81.11" width="320" height="194" transform="rotate(-12 4.18606 81.11)" fill="#B33CBD" stroke="black" stroke-width="2"/>
<rect x="21" y="77.3397" width="320" height="194" fill="#B33CBD" stroke="black" stroke-width="2"/>
<rect x="6.15846" y="80.1509" width="320" height="194" transform="rotate(-10 6.15846 80.1509)" fill="#B33CBD" stroke="black" stroke-width="2"/>
<rect x="21" y="77.3397" width="320" height="194" fill="#B33CBD" stroke="black" stroke-width="2"/>
<rect x="10.1144" y="78.2104" width="320" height="194" transform="rotate(-7 10.1144 78.2104)" fill="#B33CBD" stroke="black" stroke-width="2"/>
<rect x="21" y="77" width="320" height="194" fill="#B33CBD" stroke="black" stroke-width="2"/>
<rect x="61" y="115" width="240" height="118" fill="#3A1CB0"/>
<rect x="222.62" y="164.61" width="14.8601" height="55.8898" rx="7.43005" stroke="#00E0FF" stroke-width="3"/>
<rect x="265.526" y="164.61" width="14.8601" height="55.8898" rx="7.43005" stroke="#00E0FF" stroke-width="3"/>
<rect x="2.05186" width="10.6219" height="33.4004" rx="5.31095" transform="matrix(0.683955 -0.729524 0.683955 0.729524 221.031 171.886)" stroke="#00E0FF" stroke-width="3"/>
<rect y="2.18857" width="10.6219" height="33.3989" rx="5.31095" transform="matrix(0.683955 0.729524 -0.683955 0.729524 274.18 161.043)" stroke="#00E0FF" stroke-width="3"/>
<rect y="2.18857" width="4.78051" height="28.2285" rx="2.39025" transform="matrix(0.683955 0.729524 -0.683955 0.729524 275.268 164.249)" fill="#3A1CB0" stroke="#3A1CB0" stroke-width="3"/>
<rect y="2.18857" width="4.99971" height="28.2285" rx="2.49985" transform="matrix(-0.683955 0.729524 0.683955 0.729524 227.825 164.592)" fill="#3A1CB0" stroke="#3A1CB0" stroke-width="3"/>
<path d="M201.276 193.649C201.276 197.627 198.162 200.771 194.418 200.771C190.674 200.771 187.56 197.627 187.56 193.649C187.56 189.671 190.674 186.527 194.418 186.527C198.162 186.527 201.276 189.671 201.276 193.649Z" stroke="#00E0FF" stroke-width="3"/>
<path d="M220.5 192.5C220.5 208.039 208.563 220.5 194 220.5C179.437 220.5 167.5 208.039 167.5 192.5C167.5 176.961 179.437 164.5 194 164.5C208.563 164.5 220.5 176.961 220.5 192.5Z" stroke="#00E0FF" stroke-width="3"/>
<rect x="147.5" y="150.933" width="17" height="69.5669" rx="8.5" stroke="#00E0FF" stroke-width="3"/>
<path d="M164.5 136.961C164.5 142.318 160.568 146.421 156 146.421C151.432 146.421 147.5 142.318 147.5 136.961C147.5 131.603 151.432 127.5 156 127.5C160.568 127.5 164.5 131.603 164.5 136.961Z" stroke="#00E0FF" stroke-width="3"/>
<rect x="122.891" y="127.5" width="22.6087" height="93" rx="8.5" stroke="#00E0FF" stroke-width="3"/>
<rect x="110.5" y="180.5" width="20.1304" height="40" rx="8.5" stroke="#00E0FF" stroke-width="3"/>
<path d="M120.152 182H123.043L124.283 176L127.174 175.5L137.087 180.5V219H125.935H118.913L120.152 182Z" fill="#3A1CB0"/>
<path d="M134.761 200.5C134.761 203.681 131.874 206.5 128 206.5C124.126 206.5 121.239 203.681 121.239 200.5C121.239 197.319 124.126 194.5 128 194.5C131.874 194.5 134.761 197.319 134.761 200.5Z" stroke="#00E0FF" stroke-width="3"/>
<rect x="82.5" y="181.169" width="29" height="39.3307" rx="8.5" stroke="#00E0FF" stroke-width="3"/>
<circle cx="97" cy="163" r="14.5" stroke="#00E0FF" stroke-width="3"/>
</svg>
