<svg viewBox="0 0 159 93" fill="none" xmlns="http://www.w3.org/2000/svg">
<rect width="159" height="93" fill="#090152"/>
<path d="M42.7375 63.4C42.5775 63.4 42.4708 63.3867 42.4175 63.36C42.3108 63.3067 42.2175 63.2667 42.1375 63.24C42.0575 63.2133 41.9775 63.1867 41.8975 63.16C41.8175 63.1067 41.7375 63.0533 41.6575 63C41.6042 62.92 41.5508 62.84 41.4975 62.76C41.4442 62.7067 41.3908 62.68 41.3375 62.68C41.1775 62.68 41.0975 62.6 41.0975 62.44C41.0708 62.28 41.0442 62.12 41.0175 61.96C40.9908 61.8 40.9642 61.64 40.9375 61.48C40.9108 61.24 40.8842 61 40.8575 60.76C40.8575 60.52 40.8308 60.2933 40.7775 60.08V59.72C40.7775 59.6133 40.7642 59.52 40.7375 59.44C40.7375 59.36 40.7375 59.2667 40.7375 59.16C40.6842 59.0267 40.6842 58.92 40.7375 58.84C40.7908 58.36 40.7908 57.88 40.7375 57.4C40.7108 57.2667 40.6975 57.1333 40.6975 57C40.6975 56.8667 40.6842 56.7333 40.6575 56.6C40.6575 56.3333 40.6575 56.0667 40.6575 55.8C40.6575 55.5067 40.6308 55.2267 40.5775 54.96V54.32C40.5775 54.1067 40.5642 53.9067 40.5375 53.72C40.5375 53.5333 40.5242 53.3467 40.4975 53.16C40.4708 52.92 40.4442 52.68 40.4175 52.44C40.4175 52.2 40.4042 51.96 40.3775 51.72C40.3508 51.6667 40.3375 51.5733 40.3375 51.44C40.3108 51.3067 40.2842 51.1733 40.2575 51.04C40.2575 50.88 40.2575 50.7333 40.2575 50.6L40.1375 48.6C40.1108 48.3867 40.0842 48.1867 40.0575 48C40.0575 47.7867 40.0575 47.5867 40.0575 47.4C40.0308 47.08 40.0042 46.76 39.9775 46.44C39.9508 46.12 39.9242 45.8133 39.8975 45.52C39.8975 45.4667 39.8842 45.4133 39.8575 45.36C39.8575 45.3067 39.8575 45.2667 39.8575 45.24C39.8575 44.92 39.8442 44.6 39.8175 44.28C39.7908 43.96 39.7642 43.6267 39.7375 43.28L39.6175 42.16C39.5375 41.7333 39.5242 41.2667 39.5775 40.76C39.5775 40.52 39.6708 40.32 39.8575 40.16C39.9108 40.1067 39.9508 40.08 39.9775 40.08C40.0042 40.0533 40.0308 40.0267 40.0575 40C40.1908 39.9733 40.2575 39.88 40.2575 39.72C40.2575 39.6667 40.3108 39.64 40.4175 39.64H40.6175C40.6442 39.64 40.6575 39.64 40.6575 39.64C40.6842 39.6133 40.7108 39.6 40.7375 39.6C40.7908 39.5733 40.8308 39.5467 40.8575 39.52C40.9108 39.4667 40.9508 39.44 40.9775 39.44C41.0308 39.44 41.0842 39.4533 41.1375 39.48C41.1908 39.48 41.2442 39.4933 41.2975 39.52C41.3508 39.52 41.3908 39.5067 41.4175 39.48C41.5508 39.4533 41.6842 39.4667 41.8175 39.52C41.9775 39.5467 42.1108 39.5867 42.2175 39.64C42.3775 39.6667 42.4975 39.7733 42.5775 39.96C42.6575 40.2 42.7242 40.44 42.7775 40.68C42.8575 40.8933 42.9108 41.12 42.9375 41.36V41.68C42.9908 41.8667 43.0175 42.0667 43.0175 42.28C43.0175 42.4667 43.0175 42.6667 43.0175 42.88C43.0175 43.0667 43.0175 43.2533 43.0175 43.44C43.0442 43.6 43.0708 43.76 43.0975 43.92C43.0975 44 43.0975 44.08 43.0975 44.16C43.0975 44.24 43.1108 44.32 43.1375 44.4C43.1375 44.56 43.1375 44.72 43.1375 44.88C43.1642 45.04 43.1908 45.2133 43.2175 45.4C43.2442 45.6933 43.2708 46 43.2975 46.32C43.3242 46.64 43.3375 46.96 43.3375 47.28C43.3375 47.4133 43.3375 47.56 43.3375 47.72C43.3375 47.8533 43.3508 47.9867 43.3775 48.12C43.4042 48.2 43.4175 48.28 43.4175 48.36C43.4175 48.44 43.4175 48.52 43.4175 48.6V49.4C43.4175 49.56 43.4308 49.6933 43.4575 49.8C43.5108 49.9867 43.5242 50.1733 43.4975 50.36C43.4975 50.52 43.5108 50.6933 43.5375 50.88L43.6575 52.72C43.6842 52.9867 43.6975 53.2667 43.6975 53.56C43.7242 53.8267 43.7375 54.1067 43.7375 54.4C43.7375 54.5067 43.7375 54.6267 43.7375 54.76C43.7375 54.8667 43.7508 54.9733 43.7775 55.08C43.8042 55.16 43.8175 55.24 43.8175 55.32C43.8175 55.4 43.8175 55.48 43.8175 55.56C43.8442 55.5867 43.8442 55.64 43.8175 55.72C43.8175 55.7733 43.8308 55.8267 43.8575 55.88C43.9108 56.0667 43.9375 56.2533 43.9375 56.44C43.9375 56.6267 43.9375 56.8267 43.9375 57.04C43.9375 57.1467 43.9375 57.2667 43.9375 57.4C43.9642 57.5067 43.9775 57.6267 43.9775 57.76C44.0042 57.8933 44.0175 58.04 44.0175 58.2C44.0175 58.36 44.0175 58.5067 44.0175 58.64C44.0442 58.7733 44.0575 58.92 44.0575 59.08C44.0575 59.2133 44.0708 59.3467 44.0975 59.48C44.1242 59.5333 44.1375 59.5867 44.1375 59.64C44.1375 59.9333 44.1642 60.2267 44.2175 60.52C44.2708 60.8133 44.3242 61.1067 44.3775 61.4C44.4042 61.48 44.4175 61.5733 44.4175 61.68C44.4175 61.76 44.4175 61.84 44.4175 61.92C44.4175 62 44.3908 62.0667 44.3375 62.12C44.2308 62.2 44.1508 62.36 44.0975 62.6C44.0975 62.68 44.0575 62.7467 43.9775 62.8C43.7908 62.88 43.6308 62.9867 43.4975 63.12C43.2842 63.3067 43.0308 63.4 42.7375 63.4ZM53.4419 63.56C53.2552 63.56 53.0285 63.4933 52.7619 63.36C52.6285 63.28 52.5219 63.1733 52.4419 63.04C52.4152 62.96 52.3485 62.96 52.2419 63.04C52.1619 63.0933 52.0952 63.0933 52.0419 63.04C51.9619 62.96 51.8819 62.9067 51.8019 62.88C51.6952 62.88 51.6419 62.84 51.6419 62.76C51.6419 62.68 51.6285 62.6133 51.6019 62.56C51.6019 62.48 51.5752 62.4133 51.5219 62.36C51.3619 62.3067 51.2552 62.1733 51.2019 61.96C51.1752 61.88 51.1485 61.8133 51.1219 61.76C51.0952 61.68 51.0552 61.6 51.0019 61.52C50.9485 61.4133 50.9219 61.32 50.9219 61.24C50.8952 61.16 50.8685 61.0933 50.8419 61.04C50.8419 60.96 50.8152 60.88 50.7619 60.8C50.7352 60.6133 50.6819 60.44 50.6019 60.28C50.5219 60.12 50.4552 59.9467 50.4019 59.76C50.3485 59.6533 50.3219 59.5067 50.3219 59.32C50.3219 58.84 50.4019 58.4 50.5619 58C50.6952 57.76 50.7352 57.52 50.6819 57.28C50.6552 57.1733 50.6552 57.0667 50.6819 56.96C50.7352 56.8533 50.7485 56.7467 50.7219 56.64C50.6952 56.5333 50.6685 56.44 50.6419 56.36C50.6419 56.28 50.6419 56.1867 50.6419 56.08C50.6152 56.0267 50.6019 55.96 50.6019 55.88C50.6019 55.72 50.6019 55.56 50.6019 55.4C50.6019 55.2133 50.5752 55.0267 50.5219 54.84C50.4952 54.76 50.4819 54.64 50.4819 54.48V53C50.4552 52.6533 50.4152 52.3067 50.3619 51.96C50.3085 51.6133 50.2419 51.2667 50.1619 50.92C50.1619 50.84 50.1485 50.76 50.1219 50.68C50.1219 50.6 50.1219 50.52 50.1219 50.44C50.1219 49.8533 50.0285 49.28 49.8419 48.72V48.36C49.8952 48.0667 49.8685 47.84 49.7619 47.68C49.7352 47.5733 49.7219 47.4267 49.7219 47.24V47.2C49.7219 46.9333 49.7085 46.6667 49.6819 46.4C49.6819 46.1333 49.6952 45.8667 49.7219 45.6C49.7752 45.12 49.7752 44.6133 49.7219 44.08C49.7219 43.8667 49.7219 43.6533 49.7219 43.44C49.7219 43.2267 49.7085 43.0267 49.6819 42.84V42.6C49.7352 42.4667 49.7619 42.3467 49.7619 42.24C49.7619 42.1333 49.7619 42.0267 49.7619 41.92C49.7619 41.6 49.7485 41.2933 49.7219 41C49.7219 40.68 49.6952 40.3733 49.6419 40.08C49.6419 40 49.6419 39.92 49.6419 39.84C49.6419 39.7333 49.6285 39.64 49.6019 39.56C49.6019 39.3733 49.5352 39.2133 49.4019 39.08L49.1219 38.84C48.8552 38.68 48.6819 38.4267 48.6019 38.08C48.5752 38.0267 48.5619 37.9867 48.5619 37.96C48.5619 37.9067 48.5485 37.8533 48.5219 37.8C48.4685 37.6667 48.4952 37.5467 48.6019 37.44C48.6819 37.3333 48.7352 37.2267 48.7619 37.12C48.7619 37.04 48.7752 36.9733 48.8019 36.92C48.8552 36.84 48.8952 36.76 48.9219 36.68C48.9485 36.6 48.9752 36.5067 49.0019 36.4C49.0552 36.32 49.0952 36.2933 49.1219 36.32C49.3085 36.32 49.4419 36.2933 49.5219 36.24C49.7085 36.1067 49.9085 36.08 50.1219 36.16C50.1752 36.1867 50.2552 36.1733 50.3619 36.12C50.3885 36.12 50.4019 36.1067 50.4019 36.08C50.5352 35.9467 50.6819 35.88 50.8419 35.88C51.0019 35.8533 51.1752 35.8533 51.3619 35.88C51.3885 35.88 51.4152 35.8933 51.4419 35.92C51.4685 35.92 51.4952 35.92 51.5219 35.92C51.7352 35.9733 51.9352 36.0267 52.1219 36.08C52.3352 36.1067 52.5352 36.1067 52.7219 36.08C52.8552 36.08 52.9885 36.0933 53.1219 36.12C53.2819 36.1467 53.4285 36.16 53.5619 36.16C53.6685 36.16 53.7619 36.1733 53.8419 36.2C53.9485 36.2267 54.0419 36.2533 54.1219 36.28C54.2285 36.3067 54.3219 36.3467 54.4019 36.4C54.4819 36.4267 54.5752 36.44 54.6819 36.44C54.8152 36.4667 54.9219 36.4933 55.0019 36.52C55.1085 36.5467 55.2152 36.5867 55.3219 36.64C55.6685 36.8267 56.0152 37 56.3619 37.16C56.5219 37.24 56.6685 37.3467 56.8019 37.48C56.9885 37.6133 57.1485 37.6933 57.2819 37.72C57.3085 37.72 57.3352 37.7333 57.3619 37.76C57.3885 37.76 57.4152 37.76 57.4419 37.76C57.4685 37.7867 57.4952 37.8 57.5219 37.8C57.5485 37.8 57.5752 37.8133 57.6019 37.84C57.7352 37.9733 57.8952 38.08 58.0819 38.16C58.2952 38.2133 58.4685 38.3067 58.6019 38.44C58.6552 38.4933 58.7352 38.5467 58.8419 38.6C59.0552 38.68 59.2419 38.8 59.4019 38.96C59.4552 39.0133 59.4952 39.04 59.5219 39.04C59.6285 39.04 59.7485 39.1067 59.8819 39.24L60.7219 40.12C60.8285 40.2267 60.9085 40.32 60.9619 40.4C61.0952 40.5867 61.2419 40.76 61.4019 40.92C61.5619 41.08 61.7219 41.24 61.8819 41.4C61.9352 41.4533 61.9885 41.52 62.0419 41.6C62.1219 41.6533 62.1752 41.72 62.2019 41.8C62.2285 41.8533 62.2685 41.9067 62.3219 41.96C62.3752 41.9867 62.4152 42.0267 62.4419 42.08C62.7352 42.4 63.0152 42.7333 63.2819 43.08C63.5752 43.4267 63.8419 43.7867 64.0819 44.16C64.2152 44.3467 64.3352 44.5467 64.4419 44.76C64.5485 44.9733 64.6419 45.1867 64.7219 45.4C64.8019 45.5867 64.8819 45.7733 64.9619 45.96C65.0685 46.1467 65.1619 46.3333 65.2419 46.52C65.3219 46.8133 65.4152 47.08 65.5219 47.32C65.6285 47.6667 65.7352 48 65.8419 48.32C65.9485 48.64 66.0419 48.9867 66.1219 49.36L66.2419 49.88C66.2419 50.0933 66.2419 50.32 66.2419 50.56C66.2685 50.7733 66.2819 51 66.2819 51.24C66.2819 51.3467 66.2685 51.44 66.2419 51.52C66.2419 51.6 66.2152 51.6933 66.1619 51.8C66.1085 51.96 66.0819 52.1067 66.0819 52.24C66.0552 52.5067 65.9885 52.76 65.8819 53C65.8019 53.24 65.7085 53.4667 65.6019 53.68C65.3619 54.1067 65.1485 54.5333 64.9619 54.96C64.9085 55.0667 64.8552 55.1733 64.8019 55.28C64.7752 55.36 64.7352 55.4533 64.6819 55.56L64.4419 56.04C64.2552 56.4133 64.0285 56.7867 63.7619 57.16C63.5219 57.5067 63.2552 57.84 62.9619 58.16C62.8552 58.2933 62.7219 58.4267 62.5619 58.56C62.4285 58.6667 62.2952 58.7867 62.1619 58.92C61.8952 59.16 61.6285 59.4 61.3619 59.64C61.0952 59.8533 60.8152 60.0667 60.5219 60.28C60.2552 60.4667 59.9752 60.64 59.6819 60.8C59.4152 60.96 59.1219 61.0933 58.8019 61.2C58.6419 61.2267 58.4819 61.3067 58.3219 61.44C58.1619 61.5467 57.9885 61.6533 57.8019 61.76C57.6419 61.8667 57.4685 61.9867 57.2819 62.12C57.2019 62.1467 57.1219 62.1867 57.0419 62.24C56.9619 62.2667 56.8685 62.2933 56.7619 62.32C56.6819 62.3467 56.5885 62.3733 56.4819 62.4C56.4019 62.4267 56.3219 62.4533 56.2419 62.48C56.1352 62.5067 56.0285 62.5467 55.9219 62.6C55.8419 62.6533 55.7619 62.72 55.6819 62.8C55.4952 62.9333 55.2952 63.04 55.0819 63.12C54.8685 63.2267 54.6552 63.3467 54.4419 63.48C54.3885 63.5067 54.2952 63.52 54.1619 63.52C54.0819 63.5467 54.0019 63.5467 53.9219 63.52C53.8419 63.52 53.7619 63.52 53.6819 63.52V63.56H53.4419ZM55.0419 59.08C55.3085 59.08 55.5352 59.0267 55.7219 58.92C55.9352 58.84 56.1352 58.7467 56.3219 58.64C56.5085 58.5333 56.6819 58.4133 56.8419 58.28L57.3219 57.8C57.5885 57.5867 57.8285 57.36 58.0419 57.12C58.2819 56.88 58.5352 56.6667 58.8019 56.48C58.8552 56.4267 58.8819 56.4 58.8819 56.4C58.9885 56.2933 59.0819 56.2 59.1619 56.12C59.2685 56.0133 59.3619 55.9067 59.4419 55.8C59.4952 55.7467 59.5619 55.68 59.6419 55.6C59.7219 55.52 59.7752 55.4533 59.8019 55.4C59.9085 55.2133 60.0552 55.0533 60.2419 54.92C60.3752 54.84 60.4552 54.76 60.4819 54.68C60.5352 54.5467 60.6019 54.4133 60.6819 54.28C60.7885 54.1467 60.8952 54.0267 61.0019 53.92C61.1352 53.76 61.2685 53.52 61.4019 53.2L61.5619 52.8C61.7219 52.4267 61.8019 52.08 61.8019 51.76C61.8285 51.68 61.8419 51.56 61.8419 51.4C61.8685 51 61.8419 50.5733 61.7619 50.12C61.7352 49.9867 61.7085 49.8533 61.6819 49.72C61.6552 49.5867 61.6419 49.4667 61.6419 49.36C61.6152 49.2533 61.5885 49.16 61.5619 49.08C61.5619 48.9733 61.5352 48.88 61.4819 48.8C61.4285 48.6933 61.3885 48.5867 61.3619 48.48C61.3352 48.3733 61.3085 48.2667 61.2819 48.16C61.2819 47.9733 61.2552 47.8133 61.2019 47.68C61.1485 47.52 61.0952 47.36 61.0419 47.2C60.9619 47.04 60.8819 46.88 60.8019 46.72C60.7219 46.5333 60.6552 46.3467 60.6019 46.16L60.5619 46C60.4819 45.8933 60.4152 45.7867 60.3619 45.68C60.3352 45.5467 60.2952 45.4267 60.2419 45.32C60.1352 45.08 60.0285 44.84 59.9219 44.6C59.8419 44.36 59.7352 44.1333 59.6019 43.92C59.4685 43.68 59.3219 43.44 59.1619 43.2C59.0285 42.96 58.8552 42.7467 58.6419 42.56C58.0285 41.8933 57.3219 41.2933 56.5219 40.76C56.0419 40.4133 55.5619 40.1867 55.0819 40.08C54.8952 40.0267 54.6819 39.9867 54.4419 39.96C54.2019 39.9067 53.9752 39.8667 53.7619 39.84C53.6819 39.84 53.6152 39.8667 53.5619 39.92C53.4285 40.0267 53.3619 40.16 53.3619 40.32C53.3619 40.5067 53.3485 40.7067 53.3219 40.92C53.3219 41.1067 53.3219 41.3067 53.3219 41.52C53.3752 41.8933 53.3619 42.2 53.2819 42.44C53.2552 42.5467 53.2285 42.6533 53.2019 42.76C53.2019 42.8667 53.2152 42.9867 53.2419 43.12C53.2952 43.28 53.2819 43.4267 53.2019 43.56C53.1219 43.72 53.1219 43.8933 53.2019 44.08C53.3085 44.2933 53.3352 44.56 53.2819 44.88C53.2019 45.2 53.2019 45.52 53.2819 45.84C53.3085 45.9467 53.3219 46.0533 53.3219 46.16C53.3485 46.2667 53.3485 46.3867 53.3219 46.52C53.3219 46.8133 53.3352 47.1067 53.3619 47.4C53.4152 47.6933 53.4552 47.9867 53.4819 48.28C53.4819 48.3333 53.5085 48.4133 53.5619 48.52V49.16C53.5619 49.2133 53.5485 49.28 53.5219 49.36C53.5219 49.4133 53.5352 49.4667 53.5619 49.52C53.6152 49.7333 53.6552 49.96 53.6819 50.2C53.7352 50.4133 53.7885 50.6267 53.8419 50.84C53.8419 50.8933 53.8552 50.96 53.8819 51.04C53.9085 51.0933 53.9219 51.16 53.9219 51.24C53.9219 51.4267 53.9352 51.6133 53.9619 51.8C53.9885 51.9867 54.0152 52.1867 54.0419 52.4C54.1219 53.1467 54.2419 53.9067 54.4019 54.68C54.4819 55 54.5219 55.3333 54.5219 55.68C54.5219 55.76 54.5219 55.8533 54.5219 55.96C54.5219 56.04 54.5352 56.12 54.5619 56.2C54.6152 56.3867 54.6419 56.5733 54.6419 56.76C54.6419 56.9467 54.6419 57.1333 54.6419 57.32C54.6419 57.3733 54.6285 57.44 54.6019 57.52C54.6019 57.6 54.6152 57.6667 54.6419 57.72C54.6952 57.8533 54.7219 57.9867 54.7219 58.12C54.7219 58.2267 54.7219 58.3467 54.7219 58.48C54.7219 58.5867 54.7485 58.72 54.8019 58.88C54.8019 59.0133 54.8819 59.08 55.0419 59.08ZM73.4406 63.4C73.2806 63.4 73.174 63.3867 73.1206 63.36C73.014 63.3067 72.9206 63.2667 72.8406 63.24C72.7606 63.2133 72.6806 63.1867 72.6006 63.16C72.5206 63.1067 72.4406 63.0533 72.3606 63C72.3073 62.92 72.254 62.84 72.2006 62.76C72.1473 62.7067 72.094 62.68 72.0406 62.68C71.8806 62.68 71.8006 62.6 71.8006 62.44C71.774 62.28 71.7473 62.12 71.7206 61.96C71.694 61.8 71.6673 61.64 71.6406 61.48C71.614 61.24 71.5873 61 71.5606 60.76C71.5606 60.52 71.534 60.2933 71.4806 60.08V59.72C71.4806 59.6133 71.4673 59.52 71.4406 59.44C71.4406 59.36 71.4406 59.2667 71.4406 59.16C71.3873 59.0267 71.3873 58.92 71.4406 58.84C71.494 58.36 71.494 57.88 71.4406 57.4C71.414 57.2667 71.4006 57.1333 71.4006 57C71.4006 56.8667 71.3873 56.7333 71.3606 56.6C71.3606 56.3333 71.3606 56.0667 71.3606 55.8C71.3606 55.5067 71.334 55.2267 71.2806 54.96V54.32C71.2806 54.1067 71.2673 53.9067 71.2406 53.72C71.2406 53.5333 71.2273 53.3467 71.2006 53.16C71.174 52.92 71.1473 52.68 71.1206 52.44C71.1206 52.2 71.1073 51.96 71.0806 51.72C71.054 51.6667 71.0406 51.5733 71.0406 51.44C71.014 51.3067 70.9873 51.1733 70.9606 51.04C70.9606 50.88 70.9606 50.7333 70.9606 50.6L70.8406 48.6C70.814 48.3867 70.7873 48.1867 70.7606 48C70.7606 47.7867 70.7606 47.5867 70.7606 47.4C70.734 47.08 70.7073 46.76 70.6806 46.44C70.654 46.12 70.6273 45.8133 70.6006 45.52C70.6006 45.4667 70.5873 45.4133 70.5606 45.36C70.5606 45.3067 70.5606 45.2667 70.5606 45.24C70.5606 44.92 70.5473 44.6 70.5206 44.28C70.494 43.96 70.4673 43.6267 70.4406 43.28L70.3206 42.16C70.2406 41.7333 70.2273 41.2667 70.2806 40.76C70.2806 40.52 70.374 40.32 70.5606 40.16C70.614 40.1067 70.654 40.08 70.6806 40.08C70.7073 40.0533 70.734 40.0267 70.7606 40C70.894 39.9733 70.9606 39.88 70.9606 39.72C70.9606 39.6667 71.014 39.64 71.1206 39.64H71.3206C71.3473 39.64 71.3606 39.64 71.3606 39.64C71.3873 39.6133 71.414 39.6 71.4406 39.6C71.494 39.5733 71.534 39.5467 71.5606 39.52C71.614 39.4667 71.654 39.44 71.6806 39.44C71.734 39.44 71.7873 39.4533 71.8406 39.48C71.894 39.48 71.9473 39.4933 72.0006 39.52C72.054 39.52 72.094 39.5067 72.1206 39.48C72.254 39.4533 72.3873 39.4667 72.5206 39.52C72.6806 39.5467 72.814 39.5867 72.9206 39.64C73.0806 39.6667 73.2006 39.7733 73.2806 39.96C73.3606 40.2 73.4273 40.44 73.4806 40.68C73.5606 40.8933 73.614 41.12 73.6406 41.36V41.68C73.694 41.8667 73.7206 42.0667 73.7206 42.28C73.7206 42.4667 73.7206 42.6667 73.7206 42.88C73.7206 43.0667 73.7206 43.2533 73.7206 43.44C73.7473 43.6 73.774 43.76 73.8006 43.92C73.8006 44 73.8006 44.08 73.8006 44.16C73.8006 44.24 73.814 44.32 73.8406 44.4C73.8406 44.56 73.8406 44.72 73.8406 44.88C73.8673 45.04 73.894 45.2133 73.9206 45.4C73.9473 45.6933 73.974 46 74.0006 46.32C74.0273 46.64 74.0406 46.96 74.0406 47.28C74.0406 47.4133 74.0406 47.56 74.0406 47.72C74.0406 47.8533 74.054 47.9867 74.0806 48.12C74.1073 48.2 74.1206 48.28 74.1206 48.36C74.1206 48.44 74.1206 48.52 74.1206 48.6V49.4C74.1206 49.56 74.134 49.6933 74.1606 49.8C74.214 49.9867 74.2273 50.1733 74.2006 50.36C74.2006 50.52 74.214 50.6933 74.2406 50.88L74.3606 52.72C74.3873 52.9867 74.4006 53.2667 74.4006 53.56C74.4273 53.8267 74.4406 54.1067 74.4406 54.4C74.4406 54.5067 74.4406 54.6267 74.4406 54.76C74.4406 54.8667 74.454 54.9733 74.4806 55.08C74.5073 55.16 74.5206 55.24 74.5206 55.32C74.5206 55.4 74.5206 55.48 74.5206 55.56C74.5473 55.5867 74.5473 55.64 74.5206 55.72C74.5206 55.7733 74.534 55.8267 74.5606 55.88C74.614 56.0667 74.6406 56.2533 74.6406 56.44C74.6406 56.6267 74.6406 56.8267 74.6406 57.04C74.6406 57.1467 74.6406 57.2667 74.6406 57.4C74.6673 57.5067 74.6806 57.6267 74.6806 57.76C74.7073 57.8933 74.7206 58.04 74.7206 58.2C74.7206 58.36 74.7206 58.5067 74.7206 58.64C74.7473 58.7733 74.7606 58.92 74.7606 59.08C74.7606 59.2133 74.774 59.3467 74.8006 59.48C74.8273 59.5333 74.8406 59.5867 74.8406 59.64C74.8406 59.9333 74.8673 60.2267 74.9206 60.52C74.974 60.8133 75.0273 61.1067 75.0806 61.4C75.1073 61.48 75.1206 61.5733 75.1206 61.68C75.1206 61.76 75.1206 61.84 75.1206 61.92C75.1206 62 75.094 62.0667 75.0406 62.12C74.934 62.2 74.854 62.36 74.8006 62.6C74.8006 62.68 74.7606 62.7467 74.6806 62.8C74.494 62.88 74.334 62.9867 74.2006 63.12C73.9873 63.3067 73.734 63.4 73.4406 63.4ZM87.9403 63.8C87.6736 63.7733 87.407 63.7333 87.1403 63.68C86.9003 63.6533 86.6603 63.5867 86.4203 63.48L85.4203 63.12C85.0736 62.9867 84.7536 62.84 84.4603 62.68C84.167 62.4933 83.8736 62.3067 83.5803 62.12C83.447 61.9867 83.3136 61.8667 83.1803 61.76C83.047 61.6267 82.9136 61.5067 82.7803 61.4C82.567 61.1867 82.3536 60.9733 82.1403 60.76C81.927 60.52 81.727 60.2667 81.5403 60L80.5803 58.52C80.3403 58.1467 80.127 57.76 79.9403 57.36C79.7536 56.9333 79.5936 56.5067 79.4603 56.08C79.167 55.28 79.0203 54.4933 79.0203 53.72V53.08C79.0203 52.4133 79.0603 51.76 79.1403 51.12C79.1936 50.5867 79.3136 50.1067 79.5003 49.68C79.607 49.4133 79.7003 49.1467 79.7803 48.88C79.8603 48.6133 79.9536 48.36 80.0603 48.12L80.1803 47.84C80.2336 47.4933 80.3536 47.1867 80.5403 46.92C80.727 46.6267 80.887 46.3467 81.0203 46.08C81.127 45.8667 81.247 45.68 81.3803 45.52C81.5136 45.3333 81.6336 45.1467 81.7403 44.96C81.7936 44.88 81.8603 44.8133 81.9403 44.76C82.0203 44.68 82.087 44.6 82.1403 44.52C82.1936 44.4667 82.2336 44.4 82.2603 44.32C82.3136 44.2133 82.3536 44.12 82.3803 44.04C82.4336 43.96 82.527 43.8533 82.6603 43.72C82.8203 43.64 82.967 43.4533 83.1003 43.16C83.1536 43.0533 83.207 42.9733 83.2603 42.92C83.4203 42.7867 83.5536 42.6267 83.6603 42.44C83.7936 42.2533 83.9403 42.08 84.1003 41.92C84.207 41.8133 84.2603 41.6667 84.2603 41.48C84.2603 41.3467 84.2603 41.2267 84.2603 41.12C84.287 40.9867 84.287 40.8667 84.2603 40.76C84.2336 40.6267 84.2736 40.5067 84.3803 40.4C84.4336 40.3467 84.4736 40.28 84.5003 40.2C84.527 40.12 84.5536 40.04 84.5803 39.96C84.6603 39.6933 84.8736 39.4667 85.2203 39.28C85.2736 39.2267 85.3403 39.2 85.4203 39.2C85.527 39.1733 85.6203 39.1467 85.7003 39.12C85.887 39.04 86.1003 39.0267 86.3403 39.08C86.447 39.1067 86.5403 39.12 86.6203 39.12C86.7003 39.0933 86.7803 39.0667 86.8603 39.04C86.967 38.9867 87.0603 38.9467 87.1403 38.92C87.247 38.8933 87.3403 38.8667 87.4203 38.84C87.7936 38.7067 88.1803 38.72 88.5803 38.88C89.007 39.04 89.3136 39.32 89.5003 39.72C89.5536 39.8533 89.607 39.9867 89.6603 40.12C89.7136 40.2533 89.7536 40.3867 89.7803 40.52C89.8336 40.8133 89.8203 41.0667 89.7403 41.28C89.687 41.3867 89.6603 41.4533 89.6603 41.48C89.6336 41.5867 89.6603 41.68 89.7403 41.76C89.7936 41.84 89.8603 41.9067 89.9403 41.96C90.2336 42.2267 90.5136 42.4933 90.7803 42.76C91.047 43 91.3003 43.2667 91.5403 43.56C91.7536 43.7733 91.927 44 92.0603 44.24C92.2203 44.4533 92.367 44.6933 92.5003 44.96C92.5536 45.0933 92.6203 45.24 92.7003 45.4C92.7803 45.5333 92.8603 45.6667 92.9403 45.8C93.0736 46.04 93.1803 46.2933 93.2603 46.56C93.367 46.8267 93.4736 47.0933 93.5803 47.36V47.4C93.6336 47.5867 93.6736 47.7867 93.7003 48C93.7536 48.1867 93.8336 48.3867 93.9403 48.6C94.0203 48.7867 94.087 48.9867 94.1403 49.2C94.1936 49.3867 94.247 49.5867 94.3003 49.8C94.3536 50.04 94.407 50.28 94.4603 50.52C94.5403 50.76 94.5936 51 94.6203 51.24C94.647 51.3467 94.6736 51.4533 94.7003 51.56C94.727 51.64 94.7536 51.7333 94.7803 51.84C94.8336 52.08 94.887 52.32 94.9403 52.56C94.9936 52.8 95.0336 53.04 95.0603 53.28L95.1803 53.56C95.2336 53.72 95.287 53.9333 95.3403 54.2C95.4203 54.5467 95.4603 54.8933 95.4603 55.24C95.487 55.5867 95.487 55.9467 95.4603 56.32C95.4603 56.5067 95.447 56.6533 95.4203 56.76C95.2603 57.32 95.0603 57.8933 94.8203 58.48C94.7136 58.6667 94.607 58.8533 94.5003 59.04C94.3936 59.2 94.287 59.3733 94.1803 59.56L93.8203 60.12C93.687 60.36 93.5403 60.5733 93.3803 60.76C93.1136 61.1867 92.7936 61.56 92.4203 61.88C92.047 62.2 91.647 62.5067 91.2203 62.8C90.287 63.52 89.1936 63.8533 87.9403 63.8ZM87.7803 59.84C88.3403 59.84 88.8203 59.68 89.2203 59.36C89.3536 59.2267 89.487 59.1067 89.6203 59C89.7803 58.8667 89.9136 58.7333 90.0203 58.6C90.527 58.04 90.927 57.4533 91.2203 56.84L91.3403 56.44C91.3936 55.96 91.3936 55.48 91.3403 55L91.1003 53.68C91.0203 53.3333 90.9536 53 90.9003 52.68C90.847 52.3333 90.767 52 90.6603 51.68C90.5803 51.4933 90.5536 51.3467 90.5803 51.24C90.607 51.1067 90.607 50.9733 90.5803 50.84C90.5536 50.7067 90.5136 50.5733 90.4603 50.44C90.3803 50.0933 90.287 49.7467 90.1803 49.4C90.0736 49.0533 89.967 48.7067 89.8603 48.36C89.8336 48.28 89.807 48.2 89.7803 48.12C89.7536 48.04 89.727 47.96 89.7003 47.88C89.5136 47.5067 89.3136 47.1467 89.1003 46.8C88.887 46.4533 88.647 46.1333 88.3803 45.84C88.247 45.68 88.1003 45.5333 87.9403 45.4C87.7803 45.24 87.6203 45.0933 87.4603 44.96C87.4336 44.9067 87.3936 44.88 87.3403 44.88C87.3136 44.8533 87.2736 44.8267 87.2203 44.8C87.1403 44.6933 87.0336 44.7067 86.9003 44.84C86.767 44.9733 86.6203 45.12 86.4603 45.28C86.327 45.44 86.1936 45.6 86.0603 45.76C85.927 45.9467 85.7803 46.1333 85.6203 46.32C85.487 46.5067 85.3536 46.6933 85.2203 46.88C85.0336 47.12 84.8603 47.36 84.7003 47.6C84.5403 47.84 84.3803 48.08 84.2203 48.32C83.6603 49.2267 83.2203 50.2267 82.9003 51.32C82.847 51.48 82.8203 51.6 82.8203 51.68C82.7936 51.8667 82.767 52.0533 82.7403 52.24C82.7403 52.4267 82.7403 52.6267 82.7403 52.84V53.16C82.767 53.24 82.7803 53.32 82.7803 53.4C82.7803 53.48 82.7936 53.56 82.8203 53.64C82.8203 53.96 82.9003 54.3067 83.0603 54.68C83.2736 55.2133 83.5136 55.7333 83.7803 56.24C84.047 56.7467 84.3536 57.2267 84.7003 57.68C84.7803 57.7867 84.8603 57.8933 84.9403 58C85.047 58.1067 85.1403 58.2133 85.2203 58.32C85.4603 58.5867 85.7136 58.8267 85.9803 59.04C86.2736 59.2533 86.567 59.44 86.8603 59.6C87.1803 59.76 87.487 59.84 87.7803 59.84ZM115.598 65.36H115.398C115.318 65.36 115.225 65.3467 115.118 65.32C115.038 65.32 114.945 65.32 114.838 65.32C114.651 65.3467 114.491 65.3067 114.358 65.2C114.251 65.12 114.131 65.0133 113.998 64.88C113.945 64.8267 113.878 64.76 113.798 64.68C113.745 64.6267 113.678 64.5867 113.598 64.56C113.545 64.5333 113.491 64.4667 113.438 64.36C113.411 64.3067 113.371 64.24 113.318 64.16C113.291 64.08 113.251 64 113.198 63.92C113.145 63.7867 113.131 63.64 113.158 63.48C113.185 63.4 113.198 63.32 113.198 63.24C113.225 63.1867 113.238 63.12 113.238 63.04C113.238 62.7733 113.238 62.52 113.238 62.28C113.238 62.0133 113.211 61.7467 113.158 61.48C113.131 61.4 113.118 61.32 113.118 61.24C113.118 61.1333 113.105 61.0267 113.078 60.92C113.078 60.7333 113.065 60.5867 113.038 60.48C113.038 60.3467 113.025 60.2267 112.998 60.12C112.998 60.0133 112.998 59.9067 112.998 59.8C112.971 59.6133 112.958 59.44 112.958 59.28C112.958 59.12 112.931 58.9467 112.878 58.76V58.64C112.878 58.2933 112.851 57.96 112.798 57.64C112.771 57.2933 112.758 56.9467 112.758 56.6C112.758 56.44 112.745 56.32 112.718 56.24C112.691 56 112.665 55.76 112.638 55.52C112.638 55.2533 112.638 54.9867 112.638 54.72C112.638 54.48 112.638 54.24 112.638 54C112.638 53.7333 112.611 53.48 112.558 53.24C112.531 53.1867 112.518 53.12 112.518 53.04C112.518 52.96 112.518 52.8933 112.518 52.84C112.518 51.7467 112.518 50.6533 112.518 49.56C112.518 48.4667 112.531 47.3867 112.558 46.32C112.558 46.1867 112.558 46.0533 112.558 45.92C112.585 45.7867 112.598 45.6533 112.598 45.52C112.598 45.44 112.598 45.36 112.598 45.28C112.625 45.2 112.638 45.1333 112.638 45.08C112.638 44.7867 112.638 44.4933 112.638 44.2C112.665 43.88 112.691 43.5733 112.718 43.28C112.771 43.2 112.771 43.0933 112.718 42.96C112.691 42.9333 112.651 42.92 112.598 42.92L112.478 43.04C112.425 43.12 112.358 43.2 112.278 43.28C112.198 43.36 112.131 43.44 112.078 43.52C111.971 43.68 111.851 43.8533 111.718 44.04C111.611 44.2 111.491 44.3733 111.358 44.56C111.171 44.88 110.971 45.2133 110.758 45.56C110.545 45.88 110.385 46.2267 110.278 46.6C110.251 46.6533 110.225 46.72 110.198 46.8C110.171 46.8533 110.145 46.9067 110.118 46.96C110.011 47.2267 109.891 47.4933 109.758 47.76C109.651 48 109.545 48.2667 109.438 48.56C109.278 48.9067 109.051 49.2267 108.758 49.52C108.705 49.5733 108.651 49.6 108.598 49.6C108.465 49.68 108.318 49.76 108.158 49.84C107.998 49.8933 107.825 49.9067 107.638 49.88H107.398C107.158 49.9333 106.958 49.88 106.798 49.72C106.611 49.6667 106.451 49.5733 106.318 49.44C106.211 49.3067 106.091 49.16 105.958 49C105.851 48.8667 105.758 48.7067 105.678 48.52C105.625 48.3333 105.598 48.1467 105.598 47.96C105.571 47.9067 105.558 47.84 105.558 47.76C105.558 47.68 105.558 47.6133 105.558 47.56C105.531 47.5067 105.505 47.4533 105.478 47.4C105.451 47.32 105.438 47.2667 105.438 47.24C105.438 47.1867 105.411 47.1067 105.358 47C105.305 46.8933 105.198 46.68 105.038 46.36C104.878 46.04 104.798 45.8933 104.798 45.92C104.718 45.7867 104.638 45.64 104.558 45.48C104.478 45.32 104.385 45.1733 104.278 45.04L104.038 44.6C103.985 44.6 103.945 44.5867 103.918 44.56L103.878 44.6C103.878 44.68 103.878 44.76 103.878 44.84C103.878 44.92 103.891 45 103.918 45.08C103.971 45.3733 103.998 45.6667 103.998 45.96C103.998 46.2533 103.971 46.5467 103.918 46.84C103.918 47 103.931 47.1333 103.958 47.24C103.985 47.2933 103.998 47.3867 103.998 47.52C103.998 47.68 103.998 47.84 103.998 48C104.025 48.16 104.025 48.32 103.998 48.48C103.971 48.6133 103.958 48.76 103.958 48.92C103.985 49.0533 104.011 49.1867 104.038 49.32V49.72C103.985 49.88 103.985 50.0533 104.038 50.24C104.065 50.3733 104.065 50.52 104.038 50.68C104.038 50.8133 104.051 50.9467 104.078 51.08C104.078 51.2133 104.051 51.3867 103.998 51.6C103.838 52.24 103.878 52.8533 104.118 53.44C104.145 53.5467 104.171 53.6533 104.198 53.76C104.225 53.84 104.225 53.9333 104.198 54.04C104.198 54.12 104.198 54.2 104.198 54.28C104.198 54.36 104.211 54.44 104.238 54.52C104.291 54.6267 104.318 54.7333 104.318 54.84C104.345 55.1333 104.358 55.36 104.358 55.52C104.385 55.68 104.411 55.8 104.438 55.88C104.491 56.1733 104.545 56.48 104.598 56.8C104.651 57.0933 104.705 57.3867 104.758 57.68C104.811 58.0267 104.865 58.3733 104.918 58.72C104.998 59.04 105.038 59.3733 105.038 59.72C105.038 59.8267 105.051 59.9067 105.078 59.96C105.131 60.1733 105.158 60.4 105.158 60.64C105.158 60.8533 105.171 61.0667 105.198 61.28C105.198 61.5733 105.131 61.8 104.998 61.96C104.945 62.0667 104.918 62.1333 104.918 62.16C104.678 62.6667 104.251 62.96 103.638 63.04C103.558 63.0667 103.478 63.08 103.398 63.08C103.318 63.08 103.238 63.08 103.158 63.08C102.865 63.1333 102.651 63.08 102.518 62.92C102.465 62.8667 102.411 62.84 102.358 62.84C102.225 62.8667 102.091 62.7867 101.958 62.6C101.878 62.4667 101.758 62.3467 101.598 62.24C101.518 62.16 101.451 62.0267 101.398 61.84C101.371 61.7867 101.345 61.7333 101.318 61.68C101.318 61.6267 101.318 61.5733 101.318 61.52C101.291 61.1467 101.251 60.7867 101.198 60.44C101.145 60.0667 101.105 59.7067 101.078 59.36L101.038 58.96C101.011 58.8533 100.998 58.76 100.998 58.68C100.998 58.6 100.985 58.5067 100.958 58.4V58.16C100.878 57.7867 100.838 57.4133 100.838 57.04C100.838 56.64 100.851 56.2533 100.878 55.88C100.905 55.64 100.918 55.4 100.918 55.16C100.918 54.8933 100.931 54.64 100.958 54.4V53.48C100.958 53.3467 100.958 53.2133 100.958 53.08C100.958 52.92 100.945 52.7733 100.918 52.64C100.891 52.48 100.878 52.32 100.878 52.16C100.878 52 100.878 51.84 100.878 51.68V49.84C100.851 49.6267 100.838 49.4133 100.838 49.2C100.838 48.96 100.838 48.7333 100.838 48.52C100.838 48.44 100.838 48.36 100.838 48.28C100.838 48.1733 100.825 48.08 100.798 48C100.798 47.8667 100.785 47.7467 100.758 47.64C100.758 47.5067 100.745 47.3867 100.718 47.28V47C100.665 46.76 100.638 46.5333 100.638 46.32C100.638 46.08 100.638 45.84 100.638 45.6C100.638 45.3867 100.638 45.1733 100.638 44.96C100.638 44.72 100.611 44.5067 100.558 44.32C100.531 44.24 100.518 44.16 100.518 44.08C100.518 44 100.518 43.92 100.518 43.84C100.518 43.6533 100.518 43.48 100.518 43.32C100.518 43.1333 100.491 42.9467 100.438 42.76C100.411 42.7067 100.398 42.6133 100.398 42.48V40.48C100.398 40.3467 100.398 40.2267 100.398 40.12C100.398 39.9867 100.371 39.8667 100.318 39.76C100.238 39.4933 100.251 39.1867 100.358 38.84C100.411 38.7067 100.465 38.6133 100.518 38.56C100.571 38.48 100.625 38.4 100.678 38.32C100.731 38.24 100.771 38.16 100.798 38.08C100.851 38 100.891 37.96 100.918 37.96C101.025 37.9333 101.105 37.8933 101.158 37.84C101.238 37.7867 101.305 37.7333 101.358 37.68L101.598 37.56C101.651 37.5333 101.731 37.52 101.838 37.52C101.971 37.5467 102.105 37.5733 102.238 37.6C102.398 37.6 102.545 37.6133 102.678 37.64C102.838 37.64 102.958 37.7067 103.038 37.84C103.171 38.0267 103.305 38.2133 103.438 38.4C103.571 38.5867 103.678 38.7867 103.758 39C103.838 39.1867 103.945 39.3467 104.078 39.48C104.238 39.6933 104.398 39.9067 104.558 40.12C104.718 40.3333 104.891 40.5467 105.078 40.76C105.158 40.84 105.225 40.9333 105.278 41.04C105.358 41.1467 105.425 41.2533 105.478 41.36C105.611 41.5467 105.731 41.7333 105.838 41.92C105.971 42.08 106.105 42.2533 106.238 42.44L106.838 43.4C106.891 43.5067 106.945 43.6133 106.998 43.72C107.051 43.8 107.105 43.88 107.158 43.96C107.211 44.0933 107.291 44.1067 107.398 44C107.505 43.8667 107.611 43.7333 107.718 43.6C107.851 43.44 107.971 43.2933 108.078 43.16C108.318 42.8667 108.558 42.56 108.798 42.24C109.038 41.92 109.291 41.6133 109.558 41.32L109.798 40.96C109.985 40.6933 110.158 40.44 110.318 40.2C110.505 39.9333 110.678 39.6667 110.838 39.4C111.025 39.1067 111.185 38.8133 111.318 38.52C111.478 38.2267 111.611 37.9333 111.718 37.64L112.198 36.56C112.358 36.24 112.585 35.9733 112.878 35.76C113.278 35.44 113.718 35.32 114.198 35.4C114.385 35.4267 114.558 35.48 114.718 35.56C114.878 35.6133 115.038 35.6667 115.198 35.72C115.358 35.7733 115.465 35.8933 115.518 36.08C115.571 36.16 115.611 36.24 115.638 36.32C115.665 36.4 115.678 36.48 115.678 36.56C115.705 36.7467 115.745 36.92 115.798 37.08C115.851 37.2133 115.891 37.3733 115.918 37.56L115.958 37.96C116.011 38.2 116.065 38.44 116.118 38.68C116.198 38.92 116.265 39.16 116.318 39.4V39.48C116.345 39.7467 116.371 40.0133 116.398 40.28C116.451 40.52 116.465 40.7733 116.438 41.04V41.96C116.438 42.0933 116.438 42.2267 116.438 42.36C116.438 42.4933 116.425 42.6267 116.398 42.76C116.371 42.9467 116.358 43.1333 116.358 43.32C116.358 43.48 116.358 43.6533 116.358 43.84C116.331 43.9467 116.318 44.0533 116.318 44.16C116.318 44.2667 116.305 44.3733 116.278 44.48C116.251 44.5867 116.238 44.6933 116.238 44.8C116.238 44.88 116.238 44.9867 116.238 45.12V46.24C116.238 46.4267 116.225 46.6 116.198 46.76C116.198 46.92 116.185 47.0933 116.158 47.28C116.131 47.3867 116.118 47.4933 116.118 47.6C116.118 47.68 116.118 47.7733 116.118 47.88V50.32C116.118 50.5067 116.118 50.6933 116.118 50.88C116.145 51.0667 116.171 51.2533 116.198 51.44C116.225 51.5733 116.238 51.72 116.238 51.88C116.238 52.0133 116.238 52.1467 116.238 52.28C116.265 52.4667 116.278 52.6533 116.278 52.84C116.278 53 116.291 53.1867 116.318 53.4V53.84C116.345 54.0533 116.358 54.28 116.358 54.52C116.358 54.7333 116.358 54.9467 116.358 55.16V55.68C116.411 55.8667 116.438 56.0667 116.438 56.28C116.438 56.4933 116.451 56.7067 116.478 56.92V57.2C116.531 57.36 116.558 57.52 116.558 57.68C116.558 57.84 116.571 58 116.598 58.16L116.718 59.6C116.745 59.7067 116.758 59.8133 116.758 59.92C116.785 60 116.798 60.0933 116.798 60.2C116.825 60.3067 116.838 60.4133 116.838 60.52C116.838 60.6 116.851 60.6933 116.878 60.8C116.878 60.8267 116.878 60.8667 116.878 60.92C116.905 60.9733 116.918 61.0267 116.918 61.08C116.918 61.2667 116.931 61.4667 116.958 61.68C117.011 61.8933 117.051 62.1067 117.078 62.32L117.238 63.44C117.238 63.6 117.225 63.7067 117.198 63.76C117.171 63.92 117.105 64.0667 116.998 64.2C116.918 64.36 116.851 64.5067 116.798 64.64C116.798 64.6667 116.785 64.68 116.758 64.68C116.571 64.84 116.385 64.9733 116.198 65.08C116.011 65.2133 115.811 65.3067 115.598 65.36Z" fill="white"/>
</svg>
