<svg viewBox="0 0 1367 1222" fill="none" xmlns="http://www.w3.org/2000/svg">
<rect width="1367" height="1222" fill="white"/>
<circle cx="235" cy="152" r="40" fill="#FF0000"/>
<circle cx="338" cy="324" r="40" fill="#FF0000"/>
<circle cx="411" cy="167" r="15" fill="#FF0000"/>
<circle cx="162" cy="438" r="15" fill="#FF0000"/>
<circle cx="355" cy="490" r="15" fill="#1A75FF"/>
<circle cx="161.5" cy="285.5" r="27.5" fill="#0066FF"/>
<circle cx="368.5" cy="84.5" r="27.5" fill="#0066FF"/>
<circle opacity="0.9" cx="488.5" cy="465.5" r="27.5" fill="#0066FF"/>
<circle opacity="0.9" cx="478" cy="303" r="45" fill="#EB00FF"/>
<circle opacity="0.9" cx="117" cy="107" r="45" fill="#EB00FF"/>
<circle opacity="0.9" cx="207" cy="579" r="45" fill="#EB00FF"/>
<line x1="162.183" y1="124.535" x2="195.183" y2="137.535" stroke="black"/>
<line x1="274.766" y1="131.558" x2="340.766" y2="96.5583" stroke="black"/>
<line x1="178.578" y1="257.732" x2="220.578" y2="191.732" stroke="black"/>
<line x1="259.435" y1="181.754" x2="320.435" y2="289.754" stroke="black"/>
<path d="M420.451 178.785L459.5 261.5" stroke="black"/>
<line x1="378.429" y1="106.743" x2="405.429" y2="151.743" stroke="black"/>
<line x1="354.544" y1="289.795" x2="404.544" y2="178.795" stroke="black"/>
<line x1="160.5" y1="423.009" x2="160.5" y2="312.991" stroke="black"/>
<line x1="189.086" y1="298.507" x2="298.086" y2="317.507" stroke="black"/>
<line x1="177.133" y1="437.518" x2="340.133" y2="482.518" stroke="black"/>
<line x1="340.343" y1="483.364" x2="252.343" y2="566.364" stroke="black"/>
<line x1="369.893" y1="489.512" x2="460.893" y2="469.512" stroke="black"/>
<line x1="488.504" y1="438.062" x2="477.504" y2="350.062" stroke="black"/>
<circle cx="40" cy="40" r="40" transform="matrix(0.984808 0.173648 0.173648 -0.984808 905.878 1020.73)" fill="#FF0000"/>
<circle cx="40" cy="40" r="40" transform="matrix(0.984808 0.173648 0.173648 -0.984808 1037.18 869.229)" fill="#FF0000"/>
<circle cx="15" cy="15" r="15" transform="matrix(0.984808 0.173648 0.173648 -0.984808 1110.77 1016.24)" fill="#FF0000"/>
<circle cx="15" cy="15" r="15" transform="matrix(0.984808 0.173648 0.173648 -0.984808 912.612 706.119)" fill="#FF0000"/>
<circle cx="15" cy="15" r="15" transform="matrix(0.984808 0.173648 0.173648 -0.984808 1111.71 688.423)" fill="#1A75FF"/>
<circle cx="27.5" cy="27.5" r="27.5" transform="matrix(0.984808 0.173648 0.173648 -0.984808 871.158 866.355)" fill="#0066FF"/>
<circle cx="27.5" cy="27.5" r="27.5" transform="matrix(0.984808 0.173648 0.173648 -0.984808 1040.11 1100.25)" fill="#0066FF"/>
<circle opacity="0.9" cx="27.5" cy="27.5" r="27.5" transform="matrix(0.984808 0.173648 0.173648 -0.984808 1224.45 745.873)" fill="#0066FF"/>
<circle opacity="0.9" cx="45" cy="45" r="45" transform="matrix(0.984808 0.173648 0.173648 -0.984808 1165.62 918.276)" fill="#EB00FF"/>
<circle opacity="0.9" cx="45" cy="45" r="45" transform="matrix(0.984808 0.173648 0.173648 -0.984808 776.065 1048.61)" fill="#EB00FF"/>
<circle opacity="0.9" cx="45" cy="45" r="45" transform="matrix(0.984808 0.173648 0.173648 -0.984808 946.659 599.41)" fill="#EB00FF"/>
<line y1="-0.5" x2="35.4683" y2="-0.5" transform="matrix(0.97992 -0.199392 -0.199392 -0.97992 875.637 1002.2)" stroke="black"/>
<line y1="-0.5" x2="74.7061" y2="-0.5" transform="matrix(0.788686 0.614797 0.614797 -0.788686 988.136 1014.93)" stroke="black"/>
<line y1="-0.5" x2="78.2304" y2="-0.5" transform="matrix(0.382219 0.924072 0.924072 -0.382219 915.474 874.169)" stroke="black"/>
<line y1="-0.5" x2="124.036" y2="-0.5" transform="matrix(0.635518 -0.772086 -0.772086 -0.635518 981.062 962.907)" stroke="black"/>
<path d="M1139.5 994.108L1192.32 919.431" stroke="black"/>
<line y1="-0.5" x2="52.4786" y2="-0.5" transform="matrix(0.655581 -0.755124 -0.755124 -0.655581 1085.23 1057.43)" stroke="black"/>
<line y1="-0.5" x2="121.742" y2="-0.5" transform="matrix(0.24614 0.969234 0.969234 -0.24614 1094.36 873.218)" stroke="black"/>
<line y1="-0.5" x2="110.018" y2="-0.5" transform="matrix(-0.173648 0.984808 0.984808 0.173648 926.401 708.542)" stroke="black"/>
<line y1="-0.5" x2="110.644" y2="-0.5" transform="matrix(0.999998 0.00195497 0.00195497 -0.999998 932.442 835.529)" stroke="black"/>
<line y1="-0.5" x2="169.098" y2="-0.5" transform="matrix(0.995507 -0.0946891 -0.0946891 -0.995507 944.761 696.557)" stroke="black"/>
<line y1="-0.5" x2="120.967" y2="-0.5" transform="matrix(-0.597273 -0.802038 -0.802038 0.597273 1113.1 680.545)" stroke="black"/>
<line y1="-0.5" x2="93.1719" y2="-0.5" transform="matrix(0.924577 0.380996 0.380996 -0.924577 1143.86 678.861)" stroke="black"/>
<line y1="-0.5" x2="88.6848" y2="-0.5" transform="matrix(-0.294458 0.955665 0.955665 0.294458 1252.02 750.735)" stroke="black"/>
<circle cx="40" cy="40" r="40" transform="matrix(0.422618 -0.906308 -0.906308 -0.422618 555.012 1080.65)" fill="#FF0000"/>
<circle cx="40" cy="40" r="40" transform="matrix(0.422618 -0.906308 -0.906308 -0.422618 442.656 914.609)" fill="#FF0000"/>
<circle cx="15" cy="15" r="15" transform="matrix(0.422618 -0.906308 -0.906308 -0.422618 603.706 881.577)" fill="#FF0000"/>
<circle cx="15" cy="15" r="15" transform="matrix(0.422618 -0.906308 -0.906308 -0.422618 252.864 992.718)" fill="#FF0000"/>
<circle cx="15" cy="15" r="15" transform="matrix(0.422618 -0.906308 -0.906308 -0.422618 287.302 795.824)" fill="#1A75FF"/>
<circle cx="27.5" cy="27.5" r="27.5" transform="matrix(0.422618 -0.906308 -0.906308 -0.422618 396.911 1074.23)" fill="#0066FF"/>
<circle cx="27.5" cy="27.5" r="27.5" transform="matrix(0.422618 -0.906308 -0.906308 -0.422618 666.561 971.573)" fill="#0066FF"/>
<circle opacity="0.9" cx="27.5" cy="27.5" r="27.5" transform="matrix(0.422618 -0.906308 -0.906308 -0.422618 371.972 701.798)" fill="#0066FF"/>
<circle opacity="0.9" cx="45" cy="45" r="45" transform="matrix(0.422618 -0.906308 -0.906308 -0.422618 523.274 803.246)" fill="#EB00FF"/>
<circle opacity="0.9" cx="45" cy="45" r="45" transform="matrix(0.422618 -0.906308 -0.906308 -0.422618 548.345 1213.26)" fill="#EB00FF"/>
<circle opacity="0.9" cx="45" cy="45" r="45" transform="matrix(0.422618 -0.906308 -0.906308 -0.422618 158.603 932.213)" fill="#EB00FF"/>
<line y1="-0.5" x2="35.4683" y2="-0.5" transform="matrix(0.0610236 -0.998136 -0.998136 -0.0610236 529.283 1105.06)" stroke="black"/>
<line y1="-0.5" x2="74.7061" y2="-0.5" transform="matrix(0.797975 -0.602691 -0.602691 -0.797975 570.695 999.693)" stroke="black"/>
<line y1="-0.5" x2="78.2304" y2="-0.5" transform="matrix(0.99151 -0.130028 -0.130028 -0.99151 415.929 1033.45)" stroke="black"/>
<line y1="-0.5" x2="124.036" y2="-0.5" transform="matrix(-0.581294 -0.813694 -0.813694 0.581294 518.618 993.062)" stroke="black"/>
<path d="M589.764 848.097L531.301 777.75" stroke="black"/>
<line y1="-0.5" x2="52.4786" y2="-0.5" transform="matrix(-0.559717 -0.828684 -0.828684 0.559717 636.882 916.908)" stroke="black"/>
<line y1="-0.5" x2="121.742" y2="-0.5" transform="matrix(0.999914 0.0131035 0.0131035 -0.999914 461.308 860.414)" stroke="black"/>
<line y1="-0.5" x2="110.018" y2="-0.5" transform="matrix(0.906308 0.422618 0.422618 -0.906308 258.773 980.026)" stroke="black"/>
<line y1="-0.5" x2="110.644" y2="-0.5" transform="matrix(0.260707 -0.965418 -0.965418 -0.260707 382.996 1007.06)" stroke="black"/>
<line y1="-0.5" x2="169.098" y2="-0.5" transform="matrix(0.166194 -0.986093 -0.986093 -0.166194 251.948 959.189)" stroke="black"/>
<line y1="-0.5" x2="120.967" y2="-0.5" transform="matrix(-0.929295 0.369339 0.369339 0.929295 280.051 792.443)" stroke="black"/>
<line y1="-0.5" x2="93.1719" y2="-0.5" transform="matrix(0.607312 -0.794463 -0.794463 -0.607312 286.385 762.296)" stroke="black"/>
<line y1="-0.5" x2="88.6848" y2="-0.5" transform="matrix(0.84689 0.531768 0.531768 -0.84689 383.805 676.422)" stroke="black"/>
<circle cx="719.098" cy="413.718" r="40" transform="rotate(-99 719.098 413.718)" fill="#FF0000"/>
<circle cx="872.868" cy="285.08" r="40" transform="rotate(-99 872.868 285.08)" fill="#FF0000"/>
<circle cx="706.381" cy="237.539" r="15" transform="rotate(-99 706.381 237.539)" fill="#FF0000"/>
<circle cx="1013" cy="441.079" r="15" transform="rotate(-99 1013 441.079)" fill="#FF0000"/>
<circle cx="1034.16" cy="242.321" r="15" transform="rotate(-99 1034.16 242.321)" fill="#1A75FF"/>
<circle cx="862.452" cy="465.429" r="27.5" transform="rotate(-99 862.452 465.429)" fill="#0066FF"/>
<circle cx="631.545" cy="292.421" r="27.5" transform="rotate(-99 631.545 292.421)" fill="#0066FF"/>
<circle opacity="0.9" cx="989.082" cy="114.297" r="27.5" transform="rotate(-99 989.082 114.297)" fill="#0066FF"/>
<circle opacity="0.9" cx="830.225" cy="150.089" r="45" transform="rotate(-99 830.225 150.089)" fill="#EB00FF"/>
<circle opacity="0.9" cx="693.111" cy="537.305" r="45" transform="rotate(-99 693.111 537.305)" fill="#EB00FF"/>
<circle opacity="0.9" cx="1145.22" cy="374.576" r="45" transform="rotate(-99 1145.22 374.576)" fill="#EB00FF"/>
<line x1="703.362" y1="489.935" x2="711.04" y2="455.308" stroke="black"/>
<line x1="692.687" y1="377.64" x2="647.793" y2="317.928" stroke="black"/>
<line x1="832.354" y1="452.906" x2="760.596" y2="421.747" stroke="black"/>
<line x1="744.663" y1="384.929" x2="841.791" y2="307.785" stroke="black"/>
<path d="M716.542 226.36L792.13 174.853" stroke="black"/>
<line x1="651.961" y1="279.135" x2="692.183" y2="245.428" stroke="black"/>
<line x1="836.495" y1="274.09" x2="719.04" y2="242.07" stroke="black"/>
<line x1="998.425" y1="444.906" x2="889.761" y2="462.117" stroke="black"/>
<line x1="870.984" y1="436.149" x2="872.699" y2="325.518" stroke="black"/>
<line x1="1010.15" y1="426.208" x2="1029.1" y2="258.175" stroke="black"/>
<line x1="1029.9" y1="257.836" x2="1125.65" y2="331.768" stroke="black"/>
<line x1="1031.35" y1="227.688" x2="997.363" y2="140.937" stroke="black"/>
<line x1="961.981" y1="118.586" x2="876.786" y2="143.216" stroke="black"/>
<ellipse cx="771" cy="617.5" rx="37" ry="32.5" fill="#ED1AFF"/>
<ellipse cx="771" cy="617.5" rx="37" ry="32.5" fill="#FF0000"/>
<ellipse cx="687" cy="782.5" rx="37" ry="32.5" fill="#FF0000"/>
<ellipse cx="687" cy="782.5" rx="37" ry="32.5" fill="#FF0000"/>
<ellipse cx="532" cy="572.5" rx="37" ry="32.5" fill="#FF0000"/>
<ellipse cx="532" cy="572.5" rx="37" ry="32.5" fill="#0066FF"/>
<ellipse cx="562" cy="117.5" rx="37" ry="32.5" fill="#FF0000"/>
<ellipse cx="562" cy="117.5" rx="37" ry="32.5" fill="#0066FF"/>
<ellipse cx="1202" cy="495.5" rx="37" ry="32.5" fill="#FF0000"/>
<ellipse cx="1202" cy="495.5" rx="37" ry="32.5" fill="#0066FF"/>
<ellipse cx="1186" cy="124.5" rx="37" ry="32.5" fill="#FF0000"/>
<ellipse cx="1186" cy="124.5" rx="37" ry="32.5" fill="#FF0000"/>
<ellipse cx="63" cy="684.5" rx="37" ry="32.5" fill="#ED1AFF"/>
<ellipse cx="63" cy="684.5" rx="37" ry="32.5" fill="#ED1AFF"/>
<ellipse cx="130" cy="1086.5" rx="37" ry="32.5" fill="#ED1AFF"/>
<ellipse cx="130" cy="1086.5" rx="37" ry="32.5" fill="#ED1AFF"/>
<line x1="568.849" y1="561.523" x2="647.849" y2="536.523" stroke="black"/>
<line x1="718.672" y1="774.622" x2="951.672" y2="572.622" stroke="black"/>
<line x1="110.499" y1="152.038" x2="72.4986" y2="652.038" stroke="black"/>
<line x1="1187.5" y1="156.95" x2="1218.5" y2="464.95" stroke="black"/>
<rect width="1367" height="1222" fill="#0500F8" fill-opacity="0.61"/>
</svg>
