<svg  viewBox="0 0 140 140" fill="none" xmlns="http://www.w3.org/2000/svg">
<rect width="140" height="140" fill="#3C0CA2"/>
<path d="M51 59.1378C51 57.9809 51.9787 57.0653 53.133 57.1422L58.5 57.5L67 57H73.5L75.1953 57.4238C75.3972 57.4743 75.6057 57.493 75.8134 57.4791L80.867 57.1422C82.0213 57.0652 83 57.9808 83 59.1378V120C83 122.761 80.7614 125 78 125H56C53.2386 125 51 122.761 51 120V59.1378Z" fill="#B33CBD"/>
<path d="M79.5 49C79.5 55.9036 75.0444 61.5 66.9226 61.5C58.8008 61.5 54.5 55.9036 54.5 49C54.5 42.0964 58.8008 36.5 66.9226 36.5C75.0444 36.5 79.5 42.0964 79.5 49Z" fill="#3C0CA2"/>
<path d="M79 43.5C79 50.4036 74.5444 56 66.4226 56C58.3008 56 54 50.4036 54 43.5C54 36.5964 58.3008 31 66.4226 31C74.5444 31 79 36.5964 79 43.5Z" fill="#B33CBD"/>
</svg>
